<svg width="287" height="90" viewBox="0 0 287 90" fill="none" xmlns="http://www.w3.org/2000/svg">
<path d="M0.400024 84.2C35.7 74.1 70.9 71.8 103.1 75.6C99.5 74 95.7 72.4 91.9 70.9C88.1 69.5 84.2 68 80.3 66.7C76.4 65.4 72.4 64.2 68.3 63C64.2 61.8 60.1 60.9 55.9 59.8L63.2 56.3C65.6 55.2 68.1 54.1 70.6 53L74.3 51.4L78.1 49.9C80.6 48.9 83.1 47.9 85.7 47C90.8 45.2 95.9 43.4 101.1 41.9C106.3 40.2 111.5 38.9 116.8 37.5C137.9 32.4 159.6 29.5 181.4 29.2C192.3 29.1 203.2 29.7 213.8 31.6C224.5 33.4 235 36.5 244.7 41.3C254.4 46.1 263.3 52.6 270.7 60.8C278 68.9 283.7 78.6 286.4 89.4C284.3 78.5 279.1 68.3 272.1 59.6C265.1 50.9 256.3 43.6 246.5 38C236.7 32.4 226 28.6 215 26C204 23.5 192.8 22.2 181.6 21.6C159.2 20.6 136.7 22.3 114.5 26.4C109 27.5 103.4 28.6 98 30C92.5 31.2 87.1 32.9 81.7 34.4C79 35.2 76.3 36.1 73.6 37L69.6 38.3L65.6 39.8C63 40.8 60.3 41.8 57.7 42.8L49.9 46.1C52.1 42.3 54.2 38.3 56.6 34.4C59 30.6 61.4 26.7 64 22.9C66.6 19.2 69.3 15.4 72 11.6C74.8 7.9 77.7 4.2 80.7 0.5C47.1 24.3 20 53.2 0.400024 84.2Z" fill="#65D623"/>
</svg>
