<svg width="227" height="227" viewBox="0 0 227 227" fill="none" xmlns="http://www.w3.org/2000/svg">
<path d="M226.5 113.8C226.5 141.9 216.3 167.5 199.4 187.3C178.7 211.6 147.8 227 113.3 227C80 227 50 212.6 29.3 189.7C11.1 169.6 0 143 0 113.8C0 51.3 50.7 0.600006 113.2 0.600006C175.8 0.600006 226.5 51.3 226.5 113.8Z" fill="url(#paint0_radial_42_3)"/>
<path d="M29.1 190.1C29.1 190.1 29.1 190 29 190C29 190 29 190 29.1 190.1Z" fill="#6D4444"/>
<path d="M171.5 172.9C168.1 171.1 164.6 169.3 161 167.9C158.2 166.8 155.1 165.9 152.8 163.9C149.2 160.8 150 155.9 149.1 151.7C148.8 150.5 148.6 149.3 147.8 148.4C146.1 146.2 142.6 146.3 140.7 144.3C140.6 144.2 140.5 144.1 140.4 143.9C139.5 142.7 139.2 141.1 139.2 139.6C139.2 138.5 139.3 137.4 139.8 136.5C140.2 135.7 141 135.2 141.8 134.7C141.9 134.7 141.9 134.6 142 134.6C142.1 134.5 142.3 134.4 142.4 134.3C142.5 134.2 142.6 134.1 142.8 134C143.5 133.4 144.3 132.9 145 132.3C145.3 132.1 145.6 131.9 145.9 131.7C147.1 130.9 148.2 130.1 149.2 129.1C150.1 128.2 150.9 127.1 151.4 125.8C151.8 124.8 152.2 123.7 152.5 122.6C153.3 120 153.9 117.3 154.3 114.7C154.4 114.2 154.4 113.7 154.5 113.2C154.8 110.1 154.5 106.6 154.9 103.3C155.1 102 155.4 100.6 155.9 99.4C157.7 95.4 161.5 93.6 162.3 89C162.6 87.5 162.6 85.9 162.5 84.2C162.5 83.8 162.4 83.4 162.4 83C162.4 82.8 162.4 82.7 162.4 82.5C162.4 82.4 162.4 82.3 162.3 82.2C162 80.1 161.4 78 160.7 76.3C160 74.6 158.8 73.5 157.7 72C156.6 70.4 157.3 68.6 157.6 66.8C157.7 66.2 157.7 65.5 157.8 64.9C158 61.3 157.5 57.8 156.8 54.3C156.6 53.1 156.3 51.9 156 50.7C156 50.6 156 50.6 156 50.5C156 50.4 156 50.3 155.9 50.2C155.5 48.5 155.1 46.7 154.5 45.1C153.3 42 151.2 39.2 148.6 37.2C148.2 36.9 147.8 36.6 147.4 36.4C147.3 36.3 147.1 36.2 147 36.1C146.9 36.1 146.9 36 146.8 36C146.4 35.8 146 35.6 145.6 35.4C144.7 35 143.7 34.6 142.8 34.2C142.5 34.1 142.2 33.9 141.9 33.8C141.7 33.7 141.5 33.6 141.3 33.5C139.4 32.4 137.4 31.4 135.4 30.6C130.8 28.7 126.2 27 121.3 25.7C115.8 24.3 110.1 23.6 104.5 24.1C100.5 24.4 96.5 25.4 92.8 27.2C90.1 28.5 87.5 30.3 85.7 32.7C84.4 34.4 83.5 36.3 83.3 38.4C82.7 38.2 82.1 38.1 81.6 38C75.5 37.1 68.9 40.1 65.7 45.4C64.5 47.5 63.7 49.7 63.2 52C62.9 53.2 62.8 54.5 62.7 55.7C62.7 55.8 62.7 55.9 62.7 55.9C62.6 57.5 62.6 59.1 62.7 60.7C62.7 61.8 62.9 62.9 63.1 63.9C63.6 66.8 64.4 69.7 65 72.6C65.1 73.3 65.2999 74 65.3999 74.8C65.4999 75.2 65.5 75.7 65.5 76.2C65.6 77.1 65.5 78 65 78.8C64.9 78.9 64.8 79.1 64.7 79.2C64.1 79.9 63.1 80.4 62.7 81.2C62.4 81.8 62.2 82.5 62.2 83.1C62.2 83.3 62.2 83.4 62.2 83.6C61.9 89.6 61.5999 96.1 64.8999 101.2C64.9999 101.4 65.1 101.5 65.2 101.7C65.5 102.1 65.8 102.4 66.1 102.8C66.2 102.9 66.4 103.1 66.5 103.2C66.8 103.4 67.2 103.7 67.5 103.8C67.7 103.9 68 104.1 68.2 104.2C70.2 105.4 71.7 107.3 72.7 109.4C72.8 109.5 72.7999 109.6 72.8999 109.7C73.2999 110.4 73.6 111.2 73.8 112C74.7 114.9 74.6 117.9 75.3 120.7C75.5 121.5 75.7 122.3 76 123.1C76.5 124.7 77 126.4 77.6 127.9C77.6 128 77.6 128 77.7 128.1C78.1 129.1 78.6999 130 79.3999 130.7C79.8999 131.3 80.5 131.8 81.1 132.4C81.5 132.8 81.9 133.3 82.3 133.7C83.1 134.6 83.9 135.5 85.2 135.9C85.3 135.9 85.4 136 85.6 136C85.6 136.1 85.7 136.3 85.7 136.4C85.8 136.7 86 137 86.1 137.2C86.5 138.3 86.6 139.5 86.6 140.6C86.6 141.2 86.7 141.9 86.7 142.6C86.7 143.8 86.6 145 86.3 146.1C86.1 146.8 85.7999 147.3 85.3999 147.8C84.3999 148.9 82.9 149.3 81.5 149.7C81.4 149.7 81.2 149.8 81.1 149.8C80.1 150.1 79.2 150.5 78.5 151.2C78.4 151.3 78.2 151.5 78.1 151.7C78 151.8 77.8999 151.9 77.8999 152.1C77.2999 153.2 77.3 154.7 77 156C75.9 162 70.1 165.8 64.8 168.9C56.6 173.7 48.3 178.5 40.2 183.3L39.8999 183.5L29.7 189.6C50.4 212.5 80.4 226.9 113.7 226.9C148.2 226.9 179.1 211.5 199.8 187.2C190.1 182.5 180.8 177.7 171.5 172.9Z" fill="#6D4444"/>
<defs>
<radialGradient id="paint0_radial_42_3" cx="0" cy="0" r="1" gradientUnits="userSpaceOnUse" gradientTransform="translate(113.25 113.8) scale(113.225 113.225)">
<stop stop-color="#FAE061"/>
<stop offset="1" stop-color="#FFBA51"/>
</radialGradient>
</defs>
</svg>
