<svg width="142" height="118" viewBox="0 0 142 118" fill="none" xmlns="http://www.w3.org/2000/svg">
<path d="M136.9 44.2999C136.7 25.6999 121.6 10.5999 102.9 10.5999C92 10.5999 81.7 15.8999 75.3 24.7999L71.6 29.9999L71.3 30.3999L70.8 29.6999L67.3 24.7999C60.8 15.9999 50.5 10.6999 39.6 10.6999C27.5 10.6999 16.9 16.9999 10.9 26.4999C9.29998 29.0999 7.99997 31.8999 7.09997 34.7999C6.19997 37.8999 5.59998 41.1999 5.59998 44.6999C5.59998 51.9999 7.49997 58.5999 10.6 64.4999C16.1 75.2999 25.3 83.9999 33.8 90.9999C43 98.5999 51.8 104.3 52.8 104.9L71.3 116.8L89.8 104.9C90.8 104.3 99.7 98.4999 108.8 90.9999C117.7 83.6999 127.5 74.3999 132.9 62.7999C134.6 59.1999 135.9 55.2999 136.5 51.1999C136.8 49.0999 137 46.8999 137 44.6999C136.9 44.5999 136.9 44.3999 136.9 44.2999Z" fill="#9BE7FE"/>
<path d="M141.9 39.8999C141.9 40.5999 141.9 41.2999 141.9 42.0999C141.8 44.1999 141.6 46.1999 141.2 48.1999C140.6 51.4999 139.7 54.6999 138.4 57.6999C132.9 71.2999 121.9 81.8999 111.9 90.0999C102.5 97.7999 93.4 103.7 92.4 104.4L73.5 116.6C72.8 117 72 117.3 71.3 117.3C70.5 117.3 69.7 117.1 69 116.6L50.1 104.4C49.1 103.7 40.1 97.8999 30.6 90.0999C21.1 82.1999 10.5 72.1999 4.8 59.4999C2.1 53.5999 0.5 47.0999 0.5 39.8999C0.5 37.8999 0.7 35.8999 0.9 33.9999C1.2 32.0999 1.6 30.1999 2.2 28.2999C7.3 12.4999 22.1 0.899902 39.6 0.899902C52.3 0.899902 64 7.0999 71.3 17.1999C78.5 7.0999 90.3 0.899902 103 0.899902C124.4 0.899902 141.9 18.3999 141.9 39.8999Z" fill="#FF5546"/>
<path d="M136.9 44.3C138.7 43.7 140.3 42.9 141.9 42C141.8 44.1 141.6 46.1 141.2 48.1C140.6 51.4 139.7 54.6 138.4 57.6C132.9 71.2 121.9 81.8 111.9 90C102.5 97.7 93.4 103.6 92.4 104.3L73.5 116.5C72.8 116.9 72 117.2 71.3 117.2C70.5 117.2 69.7 117 69 116.5L50.1 104.3C49.1 103.6 40.1 97.8 30.6 90C21.1 82.1 10.5 72.1 4.8 59.4C2.1 53.5 0.5 47 0.5 39.8C0.5 37.8 0.7 35.8 0.9 33.9C1.2 32 1.6 30.1 2.2 28.2C5.2 27.5 8 26.9 10.7 26.3C36.3 21.3 53.3 23.8 70.6 29.6C70.9 29.7 71.1 29.8 71.4 29.9C81.4 33.3 91.5 37.7 103.4 42.3C111 45.3 117.8 46.5 123.7 46.5C128.8 46.6 133.1 45.8 136.9 44.3Z" fill="#EE3D35"/>
<path d="M132.8 62.8C134.7 61.2 136.6 59.5 138.4 57.7C132.9 71.3 121.9 81.9 111.9 90.1C102.5 97.8 93.4 103.7 92.4 104.4L73.5 116.6C72.8 117 72 117.3 71.3 117.3C70.5 117.3 69.7 117.1 69 116.6L50.1 104.4C49.1 103.7 40.1 97.9 30.6 90.1C21.1 82.2 10.5 72.2 4.79999 59.5C6.69999 61.2 8.59999 62.9 10.5 64.5C13 66.6 15.6 68.6 18.1 70.5C30.3 79.8 42 86.9 43.3 87.6L67.8 102.2C68.7 102.7 69.7 103 70.7 103C71.7 103 72.7 102.7 73.6 102.2L98.1 87.6C99.4 86.8 111.1 79.8 123.3 70.5C126.4 68.1 129.6 65.5 132.8 62.8Z" fill="#C42025"/>
<path d="M136.9 44.2999C138.7 43.6999 140.3 42.8999 141.9 41.9999C141.8 44.0999 141.6 46.0999 141.2 48.0999C139.7 49.1999 138.1 50.0999 136.4 51.0999C115.7 62.4999 87.2 62.5999 65.9 54.0999C36.9 42.5999 20.4 36.8999 7 34.7999C5 34.4999 3 34.1999 1 33.9999C1.3 32.0999 1.7 30.1999 2.3 28.2999C5.3 27.5999 8.1 26.9999 10.8 26.3999C36.4 21.3999 53.4 23.8999 70.7 29.6999C71 29.7999 71.2 29.8999 71.5 29.9999C81.5 33.3999 91.6 37.7999 103.5 42.3999C111.1 45.3999 117.9 46.5999 123.8 46.5999C128.8 46.5999 133.1 45.7999 136.9 44.2999Z" fill="#FF5546"/>
<path opacity="0.5" d="M122.7 39.8999C120.6 39.8999 118.8 38.3999 118.6 36.2999C117.9 30.5999 113.1 25.3999 107.4 24.2999C105.1 23.8999 103.7 21.6999 104.1 19.3999C104.5 17.0999 106.7 15.6999 109 16.0999C118.2 17.8999 125.7 25.8999 126.8 35.1999C127.1 37.4999 125.5 39.5999 123.2 39.7999C123 39.8999 122.8 39.8999 122.7 39.8999Z" fill="#F5F8FF"/>
<path opacity="0.5" d="M97.5 23.1998C95.1 23.1998 93.3 21.2998 93.3 18.9998C93.3 16.6998 95.2 14.7998 97.5 14.7998H97.6C99.9 14.7998 101.8 16.6998 101.8 18.9998C101.7 21.2998 99.8 23.1998 97.5 23.1998Z" fill="#F5F8FF"/>
</svg>
