<svg width="157" height="122" viewBox="0 0 157 122" fill="none" xmlns="http://www.w3.org/2000/svg">
<path d="M83.7 121.4C85.9 120.5 91.5 118.7 92.4 118.6C95.6 118.2 98.2 117.6 98.8 117.1C99.3 116.7 100.1 116.5 101.2 116.5C102.7 116.5 103.9 115.9 102.9 115.6C102.7 115.5 102.5 115.3 102.5 115.1C102.5 114.9 102.6 114.9 102.9 115.1C103.5 115.6 104.4 115.5 105.7 114.7C106.5 114.2 106.8 113.8 106.7 113.5C106.6 113.2 106.8 113 107.1 112.9C108.7 112.7 113.2 111.6 114.1 111.2C115.2 110.7 115.5 109.9 114.5 110.3C113.7 110.6 113.7 110.3 114.4 109.5C114.7 109.2 114.8 108.9 114.5 108.9C114.3 108.9 114.1 108.7 114.1 108.4C114.1 107.8 114.7 107.8 114.8 108.3C114.8 108.5 115 108.4 115.2 108.1C115.5 107.6 115.5 107.4 115.2 107.4C115 107.3 114.9 107 115.1 106.5C115.3 106 115.3 105.6 115.2 105.4C115.1 105.2 115.1 105.2 115.3 105.3C115.5 105.4 115.7 105.3 115.7 105C115.7 104.7 115.4 104.5 114.9 104.5C114 104.5 113.9 104.3 114.4 103.1C114.6 102.5 114.6 102.3 114.4 102.5C114.2 102.7 114.2 102.5 114.4 102C114.6 101.6 114.6 101.3 114.4 101.3C113.9 101.3 113.8 99.3999 114.2 98.5999C114.7 97.4999 114.7 97.2999 114.2 97.7999C113.7 98.1999 113.3 97.7999 113.7 97.1999C113.8 96.9999 113.9 96.5999 113.8 96.3999C113.7 96.1999 113.8 95.9999 114 95.9999C114.2 95.9999 114.4 96.1999 114.4 96.4999C114.4 96.6999 114.7 96.9999 114.9 96.9999C115.3 96.9999 115.4 97.1999 115.2 97.4999C115.1 97.7999 115.2 98.2999 115.5 98.5999C115.8 98.8999 115.9 99.2999 115.8 99.4999C115.7 99.6999 115.7 100.1 115.9 100.4C116.3 101.1 116.7 102.2 116.6 102.2C116.6 102.2 116.8 102.6 117.1 103C117.5 103.6 117.7 104.4 117.7 106.2C117.7 107.8 117.9 108.8 118.2 109.2C118.5 109.5 118.7 110.2 118.7 110.6C118.7 111 118.9 111.3 119 111.2C119.2 111.1 119.4 111.1 119.5 111.3C119.6 111.5 119.8 111.5 120 111.4C120.1 111.3 120.8 111.5 121.4 111.8C123.8 113.2 126.8 112.3 127.2 110C127.3 109.4 127.2 108.6 127 108.2C126.7 107.7 126.7 107.7 126.7 108.4C126.7 109 126.5 109.1 125.9 109.1C124.9 109.1 124.9 107.7 125.9 107.6C126.3 107.5 126.6 107.3 126.6 107.2C126.6 107 126.3 107 126 107.1C125.5 107.3 125.4 107.2 125.4 106.4C125.4 105.9 125.1 105.2 124.7 104.8C124.3 104.4 124.2 104.1 124.4 104.1C124.6 104.1 124.8 103.9 124.8 103.6C124.8 103.3 124.9 103.1 125.1 103.1C125.3 103.1 125.4 102.9 125.5 102.6C125.6 102.2 125.8 102.4 126.4 103.2C127.3 104.5 129.5 105.5 129.7 104.8C129.8 104.6 129.9 104.6 130.1 104.8C130.3 105 130.6 105.1 130.9 105C131.4 104.8 131.7 104.2 131.8 102.5C131.9 101.5 132.1 101.4 134.3 101.8C135.4 102 135.5 102 135.3 101.4C135.1 100.9 135.2 100.9 135.5 101.2C135.7 101.4 136.3 101.6 136.7 101.6C137.3 101.6 137.5 101.4 137.6 100.6C137.7 100.1 137.9 99.5999 138 99.5999C138.1 99.5999 138.2 98.8999 138.3 97.9999C138.3 96.2999 138.5 95.7999 138.9 96.2999C139.3 96.8999 141.3 96.6999 142.1 96.0999C142.8 95.5999 142.8 95.2999 142.9 92.9999C142.9 91.5999 142.9 90.2999 142.9 89.8999C142.9 89.5999 143.1 89.2999 143.3 89.2999C143.5 89.2999 144 88.9999 144.3 88.6999C144.7 88.1999 145 88.0999 146 88.2999C147.4 88.5999 147.6 88.3999 147.1 87.5999C146.9 87.1999 146.8 86.9999 147 86.9999C147.5 86.9999 147.4 86.0999 146.9 85.7999C146 85.2999 145.6 84.3999 145.5 82.8999C145.3 81.0999 145.1 80.7999 144 80.5999C142.7 80.3999 142.1 80.0999 142.1 79.7999C142.1 79.5999 141.8 79.1999 141.4 78.7999C141 78.3999 140.7 77.8999 140.6 77.5999C140.5 76.4999 139.7 75.5999 138.9 75.7999C138.4 75.8999 138.1 75.7999 138.1 75.4999C138.1 75.2999 138 75.0999 137.8 75.0999C137.7 75.0999 137.2 74.9999 136.7 74.9999C136.2 74.8999 135.6 75.1999 135 75.5999C134.2 76.2999 134 76.2999 133.2 75.8999C132.7 75.5999 132.3 75.2999 132.4 74.9999C132.5 74.6999 132.3 74.5999 132 74.5999C131.7 74.5999 131.2 74.3999 131 74.0999C130.8 73.7999 130.1 73.3999 129.5 73.1999C128.9 72.9999 128.5 72.5999 128.5 72.3999C128.6 71.7999 127.9 71.7999 127.3 72.2999C126.8 72.7999 126.7 72.7999 126.5 72.2999C126.3 71.9999 125.8 71.7999 125.4 71.7999C124.8 71.7999 124.6 71.9999 124.6 72.7999C124.6 73.3999 124.5 73.7999 124.1 73.7999C122.9 73.7999 124.2 76.3999 126.1 77.9999C126.5 78.3999 126.9 78.9999 127 79.5999C127.1 80.0999 127.6 81.3999 128.2 82.4999C129.3 84.4999 130 86.3999 130.2 88.0999C130.5 90.3999 130.7 92.3999 130.5 92.3999C130.2 92.3999 129.4 91.4999 129.6 91.2999C129.7 91.1999 129.6 91.0999 129.3 91.0999C128.8 91.0999 126.8 86.8999 125.9 84.1999C125.6 83.3999 124.9 81.8999 124.3 80.8999C123.7 79.8999 123.1 78.8999 123.1 78.7999C123.1 78.5999 122.7 77.7999 122.3 76.7999C121.8 75.7999 121.5 74.9999 121.6 74.7999C121.8 74.4999 120.6 73.1999 120.1 73.1999C119.9 73.1999 119.8 72.8999 119.8 72.5999C119.8 72.1999 119.7 71.9999 119.5 72.1999C119.3 72.2999 119.2 72.0999 119.3 71.6999C119.4 71.0999 119.2 70.8999 118.5 70.8999C117.9 70.7999 117.6 70.6999 117.8 70.3999C118 69.7999 117.4 69.8999 117.1 70.4999C116.9 70.8999 116.7 70.8999 116.2 70.6999C115.9 70.4999 115.8 70.3999 116 70.2999C117.3 70.1999 115.6 68.5999 113.3 67.6999C111.9 67.0999 111 67.2999 110.1 68.4999C109.3 69.3999 109.2 70.1999 109.8 70.6999C110 70.8999 110.1 71.7999 110.2 72.6999C110.2 74.1999 110.3 74.4999 111.1 75.2999C112 76.0999 112 76.1999 111.9 78.6999C111.8 80.4999 111.9 81.4999 112.2 81.9999C112.4 82.3999 112.6 82.8999 112.5 82.9999C112.4 83.0999 112.1 82.7999 111.8 82.1999C111.5 81.6999 111 80.9999 110.7 80.6999C110 80.0999 109 77.6999 109 76.7999C109 76.0999 108.3 73.9999 108 73.6999C107.9 73.5999 107.7 73.2999 107.5 72.8999C107.3 72.4999 106.9 72.2999 106.6 72.3999C106 72.4999 104.3 74.0999 103.8 75.0999C103.5 75.5999 103.4 75.5999 102.5 75.1999C101.9 74.8999 101.4 74.4999 101.3 74.2999C101.2 73.8999 101 73.8999 100.5 74.3999C100.1 74.7999 99.8 74.8999 99.5 74.5999C99.1 74.2999 98.8 74.3999 98 75.1999C97.4 75.6999 96.3 76.3999 95.6 76.6999C94.9 76.9999 93.8 77.7999 93.4 78.3999C92.9 78.9999 92.4 79.4999 92.3 79.3999C92.2 79.2999 92.1 78.5999 92 77.8999C91.8 76.2999 91.5 75.8999 90.8 76.0999C90.2 76.2999 89.2 78.0999 89.4 78.5999C89.7 79.2999 89.1 80.3999 88.3 80.3999C87.5 80.3999 85.8 78.9999 85.8 78.2999C85.8 78.0999 85.6 77.9999 85.3 78.0999C84.9 78.2999 84.7 77.8999 84.8 77.1999C84.9 76.7999 82 77.1999 81.5 77.6999C81.1 77.9999 81 77.9999 80.6 77.4999C80.3 77.1999 80.1 76.6999 80.1 76.4999C80.1 75.8999 78.7 75.9999 78.2 76.5999C77.6 77.3999 76.8 77.1999 77 76.2999C77.2 75.3999 76.7 75.2999 75.7 75.9999C74.9 76.5999 73.9 76.3999 74.1 75.7999C74.2 75.5999 74.1 75.0999 74 74.7999C73.9 74.3999 73.9 73.9999 74.1 73.7999C74.5 73.1999 74 73.2999 73.1 73.8999C72.7 74.1999 72.4 74.2999 72.4 74.0999C72.4 73.8999 72.1 73.8999 71.7 73.9999C70.9 74.1999 68.7 76.5999 68.7 77.1999C68.7 77.3999 68.6 77.5999 68.4 77.5999C68.2 77.5999 68.1 77.7999 68.1 77.9999C68.1 78.5999 66.9 80.8999 66.2 81.4999C65.9 81.7999 65.6 82.2999 65.6 82.5999C65.6 82.8999 65.5 83.0999 65.3 82.9999C65.1 82.8999 65.1 82.4999 65.4 81.8999C66 80.7999 66 80.7999 65.2 79.9999C64.8 79.4999 64.5 78.7999 64.5 77.8999C64.5 76.6999 64.3 76.3999 62.3 74.3999C60.9 72.9999 60 71.8999 59.8 71.1999C59.7 70.6999 59.4 70.0999 59.2 69.9999C58.8 69.6999 56.7 70.5999 56.7 71.0999C56.7 71.2999 56.6 71.4999 56.4 71.4999C55.9 71.4999 55.4 73.6999 55.6 74.8999C55.7 75.4999 55.8 76.3999 55.8 76.6999C55.8 77.0999 56 77.5999 56.3 77.9999C57 78.9999 56.9 79.9999 56.1 81.9999C55.5 83.3999 55.1 83.8999 54.2 84.3999C52.2 85.3999 51.5 87.2999 51.3 91.0999C51.2 93.6999 51.1 94.2999 50.7 94.1999C50.4 94.0999 49.8 94.0999 49.4 94.0999C48.8 94.0999 48.5 93.8999 48.4 93.3999C48.2 92.8999 48.1 92.7999 47.8 93.0999C47.3 93.5999 46.9 93.5999 46.9 93.1999C46.9 92.9999 47.2 92.7999 47.7 92.6999C48.2 92.5999 48.4 92.3999 48.4 92.2999C48.3 92.1999 48.5 90.5999 48.8 88.7999C49.1 86.9999 49.2 85.1999 49.1 84.7999C49 84.2999 49.1 83.9999 49.3 83.9999C49.5 83.9999 49.6 83.8999 49.5 83.6999C49.4 83.4999 49.5 83.1999 49.8 82.9999C50.1 82.7999 50.3 82.2999 50.2 81.7999C50.2 81.2999 50.3 80.9999 50.7 81.0999C51.4 81.1999 52.5 80.4999 52.8 79.9999C52.9 79.7999 52.8 79.5999 52.5 79.5999C52.3 79.5999 52 79.8999 51.9 80.1999C51.7 80.9999 51 80.5999 50.9 79.6999C50.8 78.9999 51 78.8999 52.1 78.6999C53.7 78.3999 54.8 77.1999 54.3 76.2999C54.1 75.8999 54.1 75.4999 54.4 74.8999C54.9 73.7999 54.9 73.6999 54.4 73.8999C54.2 73.9999 53.7 73.6999 53.4 73.1999C53 72.5999 53 72.2999 53.2 72.1999C53.4 72.0999 53.4 71.8999 53.2 71.5999C53 71.2999 52.9 71.0999 52.9 70.9999C52.9 70.8999 52.6 70.3999 52.3 69.7999C51.9 68.9999 51.6 68.7999 51.1 68.9999C49.8 69.3999 47.5 72.0999 46.5 74.2999C46 75.3999 45.3 77.0999 45 77.8999C44.6 78.6999 44.4 79.5999 44.4 79.6999C44.4 80.0999 43.2 80.9999 42.6 80.9999C41.9 80.9999 42.3 79.0999 43.2 78.2999C44.1 77.4999 45.3 74.9999 45.2 74.0999C45.2 73.6999 45.4 73.2999 45.6 73.1999C45.9 72.9999 45.9 73.0999 45.7 73.3999C45.5 73.7999 45.5 73.7999 46 73.3999C46.7 72.8999 46.7 72.0999 46 72.0999C45.7 72.0999 45.5 71.8999 45.5 71.5999C45.5 71.2999 45.8 71.0999 46.4 71.0999C47.2 71.0999 47.2 70.9999 46.7 70.6999C46.4 70.4999 46 69.5999 45.9 68.5999C45.8 67.6999 45.6 66.6999 45.6 66.3999C45.5 65.5999 44.6 65.6999 43.8 66.5999C42.9 67.4999 41.9 67.5999 41.7 66.6999C41.6 66.2999 41.8 66.1999 42.2 66.0999C42.6 66.0999 42.9 65.8999 42.9 65.5999C42.9 65.2999 42.6 65.0999 42.3 65.0999C41.8 65.0999 41.7 64.8999 41.6 63.7999C41.5 61.1999 40.6 60.7999 34.5 60.6999C32.1 60.6999 29.9 60.5999 29.8 60.4999C29.6 60.3999 29.5 60.0999 29.5 59.7999C29.5 59.3999 29.2 59.2999 28.2 59.4999C26.8 59.6999 24.8 61.2999 23 63.3999C21.8 64.8999 21.1 64.6999 21.2 62.8999C21.3 62.1999 21.2 61.6999 21 61.7999C20.8 61.8999 20.8 61.6999 20.9 61.2999C21.1 60.5999 20.5 60.3999 20.2 60.9999C20 61.3999 18.5 61.0999 17.8 60.4999C17.5 60.2999 17.2 60.0999 17.1 60.1999C16.9 60.3999 14.8 60.7999 13.8 60.8999C13.4 60.8999 12.7 61.2999 12.2 61.7999C10.9 63.0999 9.60001 63.5999 9.20001 62.9999C9.00001 62.6999 8.70001 62.5999 8.40001 62.7999C8.20001 62.9999 7.60001 63.0999 7.10001 63.0999C6.30001 63.0999 5.30001 63.9999 4.70001 65.2999C3.60001 67.4999 3.90001 71.6999 5.30001 73.4999C6.00001 74.2999 6.50001 76.9999 6.60001 79.4999C6.60001 79.7999 7.10001 80.7999 7.70001 81.4999C8.30001 82.1999 8.90001 83.2999 9.00001 83.8999C9.10001 84.3999 9.40001 85.9999 9.60001 87.3999C9.90001 89.4999 10.6 91.4999 10.6 90.5999C10.6 90.4999 10.9 90.4999 11.3 90.6999C11.9 90.9999 12 90.9999 11.9 90.4999C11.9 90.1999 11.8 88.7999 11.8 87.3999C11.8 84.8999 11.8 84.8999 12.6 85.0999C13.2 85.1999 13.6 84.9999 14.3 84.0999L15.2 82.8999L15.1 85.2999C14.9 89.0999 14.9 89.4999 15.2 90.7999C15.4 91.4999 15.6 92.3999 15.6 92.8999C15.7 93.2999 15.9 94.1999 16 94.6999C16.1 95.3999 16.5 95.7999 16.9 95.8999C17.3 95.9999 17.8 96.2999 18 96.4999C18.4 96.7999 21.6 97.7999 22.5 97.7999C22.8 97.7999 23.3 99.7999 23.4 101.5C23.4 101.9 23.8 102.2 24.2 102.3C24.6 102.4 24.9 102.4 25 102.4C25 102.4 25.3 102.6 25.5 102.8C25.7 103.1 26.5 103.4 27.1 103.5C28.3 103.7 28.6 103.5 28 102.9C27.6 102.5 28.4 101.4 29 101.6C29.2 101.7 29.5 101.9 29.5 102.2C29.9 106.2 30.3 106.8 32.4 107.5C33.3 107.8 34.2 108.2 34.5 108.3C35.4 108.7 37.9 109 37.9 108.6C37.9 108.4 38.3 108.3 38.7 108.4C39.3 108.5 39.6 108.4 39.7 107.9C40 106.7 40.6 107.3 40.8 109C41 111 41.4 111.4 43.5 112.2C44.6 112.6 45.8 113.4 47 114.5C48 115.4 49.1 116.2 49.4 116.2C49.7 116.2 50.1 116.3 50.3 116.5C50.8 117 54.9 117.7 55.8 117.4C56.3 117.3 56.7 117.4 57.2 117.9C57.5 118.3 58.3 118.6 58.9 118.7C59.5 118.8 60.2 119.1 60.3 119.3C60.5 119.5 61 119.6 61.3 119.6C61.7 119.5 62.4 119.6 62.9 119.9C63.8 120.3 64.5 120.3 65.2 119.7C65.6 119.4 67.6 119.6 68.5 120.1C68.8 120.3 69.1 120.2 69.3 120C69.4 119.8 69.7 119.7 69.9 119.8C70.6 120 71.3 118.9 71.4 117.4C71.5 116.6 71.5 114.3 71.4 112.3C71.3 109.6 71.5 108.3 71.8 107.5C72 107 72.2 106.2 72.2 105.8C72.2 105.5 72.2 103.5 72.3 101.5C72.5 97.7999 72.2 96.6999 71.5 97.8999C71.2 98.3999 71.2 98.3999 71.1 97.5999C71.1 96.8999 71.2 96.6999 71.6 96.8999C72.1 97.0999 72.2 96.7999 72.1 95.2999C72.1 94.8999 72.2 93.7999 72.3 92.7999C72.4 91.6999 72.6 90.5999 72.6 90.1999C72.7 89.2999 72.9 89.0999 73.4 89.2999C73.6 89.3999 73.7 89.6999 73.5 89.8999C73.4 90.0999 73.3 91.0999 73.4 91.9999C73.6 95.2999 73.5 95.9999 73 96.9999C72.7 97.4999 72.7 98.0999 73 99.0999C73.2 99.9999 73.2 100.6 73 100.9C72.8 101.1 72.8 101.5 72.9 101.7C73.2 102.1 73.3 103.5 73.6 109.4C73.7 111.5 73.9 113.4 74 113.5C74.1 113.7 74 114.2 73.7 114.7C73.4 115.2 73.2 116.5 73.1 117.6L73 119.5L74.4 120.2C77.2 121.8 81.3 122.3 83.7 121.4ZM98 116.5C98.1 116.3 98.4 116.2 98.5 116.2C98.7 116.2 98.7 116.4 98.5 116.7C98.1 117.2 97.7 117.1 98 116.5ZM69.9 115.8C69.9 115.6 70 115.5 70.2 115.5C70.4 115.5 70.5 115.6 70.5 115.8C70.5 116 70.4 116.1 70.2 116.1C70 116.1 69.9 116 69.9 115.8ZM104.6 113.8C104.7 113.6 105 113.6 105.2 113.7C105.5 113.8 105.7 113.7 105.7 113.4C105.7 113.1 105.8 112.8 106 112.7C106.2 112.6 106.3 112.9 106.3 113.3C106.3 114 106.2 114.1 105.3 114.1C104.9 114.1 104.5 114 104.6 113.8ZM81 114.2C80.8 114 80.7 113.4 80.8 113C80.9 112.3 80.9 112.3 80.6 112.8C80.4 113.1 80.3 113.6 80.4 113.8C80.7 114.4 80 114.4 79.5 113.7C79.2 113.4 79.1 113.3 79.1 113.6C79.1 113.8 78.9 114 78.7 114C78.5 114 78.5 113.8 78.8 113.5C79.3 113 79.3 112.9 78.8 112.6C78.2 112.2 78.5 111.5 79.2 111.7C79.6 111.8 79.7 111.6 79.6 110.7C79.6 109.4 79.8 109.4 80 110.7L80.1 111.5L80.6 110.8L81.1 110.1L82.2 110.9C83.7 112 84.2 113.3 83.4 114.2C83 114.7 81.5 114.7 81 114.2ZM69.7 114.2C70 113.8 70.3 113.6 70.4 113.7C70.6 113.9 69.8 114.8 69.5 114.8C69.3 114.9 69.4 114.6 69.7 114.2ZM69.8 113.1C69.8 113 69.9 112.9 70.1 112.7C70.3 112.6 70.4 112.7 70.4 112.8C70.4 113 70.3 113.2 70.1 113.2C70 113.3 69.8 113.2 69.8 113.1ZM124 108.6C124 108.2 124 107.7 124 107.6C124 107.4 124 106.9 124 106.4C124 105.9 124.1 105.4 124.3 105.3C124.5 105.2 124.6 105.2 124.5 105.4C124.4 105.6 124.4 106.4 124.6 107.1C124.8 107.9 124.8 108.7 124.8 108.9C124.6 109.6 124.1 109.4 124 108.6ZM114.3 105.8C114.4 105.5 114.6 105.3 114.7 105.4C114.8 105.5 114.8 105.8 114.7 106.1C114.6 106.4 114.4 106.6 114.3 106.5C114.1 106.4 114.2 106.1 114.3 105.8ZM102.6 104.4C102.4 102.4 102.6 99.7999 102.8 99.5999C103.1 99.2999 103.3 99.9999 104.1 104.2C104.2 104.7 104.1 105.3 103.9 105.6C103.5 106.1 103.5 106 103.1 105.5C102.9 105.1 102.7 104.6 102.6 104.4ZM49.4 102.6C48.8 102.6 48.4 100.9 48.4 98.6999C48.4 96.7999 48.4 96.5999 48.7 97.3999C48.9 97.8999 49.3 98.6999 49.7 98.9999C50.1 99.3999 50.4 99.8999 50.4 100.2C50.4 100.5 50.6 100.7 50.7 100.7C51.1 100.7 51.6 101.9 51.8 103.7C52.1 106.2 51.8 106.4 50.7 104.4C50.1 103.4 49.5 102.6 49.4 102.6ZM123.2 99.8999C123.2 99.4999 123.3 99.1999 123.5 99.1999C123.7 99.1999 123.8 99.3999 123.8 99.6999C123.8 99.9999 123.9 100.2 124.1 100.2C124.2 100.2 124.4 100.7 124.4 101.4L124.5 102.6L123.8 101.7C123.5 101 123.2 100.3 123.2 99.8999ZM109.1 99.7999C108.6 98.1999 108.3 95.8999 108.8 96.4999C108.9 96.6999 109.4 96.9999 109.9 97.1999C110.6 97.4999 110.8 97.7999 110.8 98.5999C111.1 102.4 110.2 103 109.1 99.7999ZM26.5 101.8C26.5 101.4 26.7 101.3 27 101.4C27.3 101.5 27.3 101.7 27.1 102C26.6 102.5 26.5 102.5 26.5 101.8ZM76.1 98.9999C76.4 98.3999 76.5 97.9999 76.3 97.5999C75.8 96.7999 76.2 94.9999 76.8 94.9999C77 94.9999 77 95.4999 77 96.0999C76.9 96.6999 77 97.1999 77.1 97.0999C77.3 96.9999 77.4 97.3999 77.4 97.9999C77.4 98.7999 77.3 99.0999 76.8 99.3999C75.7 99.8999 75.5 99.8999 76.1 98.9999ZM28 100.3C28 99.9999 28.1 99.6999 28.3 99.5999C28.5 99.4999 28.6 99.6999 28.6 100.1C28.6 100.5 28.5 100.8 28.3 100.8C28.2 100.8 28 100.6 28 100.3ZM70.8 99.0999C70.8 98.7999 70.8 98.5999 70.9 98.5999C71 98.5999 71.1 98.7999 71.2 99.0999C71.3 99.3999 71.3 99.5999 71.1 99.5999C71 99.5999 70.8 99.3999 70.8 99.0999ZM26.3 99.2999C26 97.9999 26.5 97.5999 27.3 98.4999C28 99.1999 28 99.1999 27.4 99.6999C26.7 100.3 26.5 100.3 26.3 99.2999ZM122.8 95.3999C123.1 95.2999 122.7 94.2999 121.9 93.4999C121.6 93.1999 121.5 92.6999 121.7 91.9999C121.8 91.2999 121.8 90.8999 121.5 90.8999C121.3 90.8999 121.1 90.7999 121.1 90.5999C121.1 90.3999 121.4 90.2999 121.8 90.2999C122.6 90.2999 123 90.9999 123.2 92.9999C123.3 93.4999 123.4 94.2999 123.5 94.7999C123.6 95.2999 123.6 95.8999 123.5 96.1999C123.3 96.6999 123.3 96.6999 122.8 96.0999C122.7 95.7999 122.6 95.4999 122.8 95.3999ZM28.3 98.1999C28.3 97.9999 28.4 97.8999 28.6 97.8999C28.8 97.8999 28.9 97.9999 28.9 98.1999C28.9 98.3999 28.8 98.4999 28.6 98.4999C28.4 98.4999 28.3 98.3999 28.3 98.1999ZM117.6 94.6999C117.4 93.9999 117.2 93.2999 117 93.0999C116.9 92.8999 116.7 92.2999 116.5 91.5999C116.3 90.5999 116.3 90.3999 116.7 90.5999C117 90.6999 117.3 90.6999 117.3 90.4999C117.5 90.0999 116.8 87.1999 116.4 86.6999C116.2 86.4999 116.2 86.2999 116.4 86.0999C116.6 85.9999 116.7 85.7999 116.6 85.5999C116.5 85.3999 116.6 85.2999 116.7 85.2999C116.9 85.2999 117 84.8999 117 84.4999C117 84.0999 117 83.6999 117.1 83.6999C117.6 83.6999 118.3 84.0999 118.3 84.4999C118.3 84.6999 118.5 85.2999 118.8 85.7999C119.1 86.2999 119.2 87.0999 119.1 87.6999C119 88.2999 119.1 88.7999 119.3 88.8999C119.5 88.9999 119.6 89.2999 119.4 89.6999C119.2 89.9999 119 91.5999 119 93.1999C118.9 95.6999 118.8 96.0999 118.3 96.0999C118.1 95.9999 117.8 95.3999 117.6 94.6999ZM28.5 96.7999C29.1 96.3999 29.1 96.3999 28.5 96.1999C28.2 96.0999 28 95.7999 28.1 95.5999C28.2 95.3999 28 94.9999 27.8 94.7999C27.4 94.4999 27.4 94.5999 27.5 94.9999C27.6 95.2999 27.7 95.7999 27.9 96.0999C28.1 96.4999 28 96.6999 27.5 96.6999C27 96.6999 26.9 96.4999 26.9 95.4999C26.9 94.7999 26.8 93.8999 26.7 93.3999C26.6 92.8999 26.6 92.4999 26.8 92.4999C27.2 92.4999 28.7 93.9999 28.7 94.4999C28.7 94.6999 29 95.1999 29.3 95.4999C29.6 95.7999 29.9 96.2999 29.8 96.4999C29.4 97.8999 29.4 97.8999 28.7 97.5999C27.9 97.1999 27.9 97.1999 28.5 96.7999ZM46.9 94.5999C47.3 94.1999 47.9 94.5999 47.7 95.1999C47.6 95.5999 47.4 95.5999 47.1 95.2999C46.9 94.9999 46.8 94.6999 46.9 94.5999ZM76.1 93.4999C76.1 93.1999 76.3 92.7999 76.6 92.6999C76.9 92.5999 77.1 92.6999 77.1 93.1999C77.1 93.5999 77 93.9999 76.9 94.0999C76.6 94.4999 76.1 94.0999 76.1 93.4999ZM69.9 92.8999C70 92.6999 70.1 92.6999 70.1 93.0999C70.1 93.3999 70 93.5999 69.9 93.4999C69.8 93.3999 69.8 93.0999 69.9 92.8999ZM99.8 89.8999C99.7 88.0999 100 87.3999 100.3 88.6999C100.4 89.1999 100.6 89.4999 100.8 89.4999C101.2 89.4999 101.1 91.0999 100.7 91.6999C100.2 92.2999 99.9 91.6999 99.8 89.8999ZM58.3 88.3999C58.1 86.6999 57.9 85.4999 57.6 85.1999C57.1 84.6999 57.1 84.5999 57.6 84.5999C57.9 84.5999 58.1 84.2999 58.1 83.7999C58.1 83.3999 58.2 82.9999 58.4 82.9999C58.6 82.9999 58.7 82.7999 58.7 82.4999C58.7 82.1999 59 81.8999 59.3 81.7999C59.9 81.5999 59.9 81.5999 59.4 80.8999C59.1 80.4999 59 80.0999 59.2 79.9999C59.4 79.8999 59.5 79.9999 59.5 80.2999C59.5 80.5999 59.6 80.7999 59.8 80.7999C60.3 80.7999 59.9 88.4999 59.2 91.0999C59 92.1999 58.6 90.9999 58.3 88.3999ZM76.6 88.9999C76.8 88.2999 76.8 88.1999 77.8 88.5999C78.4 88.7999 78.4 88.8999 77.9 89.0999C77.6 89.1999 77.4 89.6999 77.4 90.1999C77.4 90.9999 77.4 90.9999 77 90.3999C76.6 89.9999 76.5 89.3999 76.6 88.9999ZM134.3 86.4999C134 85.6999 133.9 84.9999 134.1 84.9999C134.5 84.9999 134.1 84.0999 133.3 83.0999C133 82.6999 132.7 82.0999 132.7 81.7999C132.7 81.4999 132.4 80.6999 132.1 80.0999C131.8 79.4999 131.6 78.8999 131.7 78.7999C132 78.5999 133.4 80.0999 133.9 81.1999C134.1 81.5999 134.6 82.0999 135 82.1999C135.7 82.3999 136.6 83.8999 136.7 84.8999C136.7 85.2999 136.6 85.4999 136.2 85.3999C135.9 85.2999 135.7 85.3999 135.7 85.7999C135.7 86.0999 135.5 86.3999 135.2 86.4999C134.9 86.5999 134.8 86.7999 135 87.2999C135.2 87.5999 135.3 88.0999 135.3 88.2999C135.4 88.8999 134.8 88.0999 134.3 86.4999ZM94.2 87.7999C93.7 86.3999 94.4 84.9999 95.6 84.6999C96.1 84.5999 96.7 84.4999 97 84.3999C97.9 84.1999 98 84.7999 97.2 85.4999C96.5 86.0999 95.7 87.4999 95.3 88.8999C95 89.4999 94.7 89.1999 94.2 87.7999ZM63.5 88.1999C63.7 87.7999 64.2 87.4999 64.2 87.7999C64.2 88.2999 63.8 88.8999 63.6 88.7999C63.5 88.6999 63.4 88.3999 63.5 88.1999ZM20.8 89.2999C20.7 89.3999 20.4 89.1999 20.3 88.7999C20.1 88.2999 20.3 87.9999 21.1 87.2999C22.1 86.4999 22.3 85.8999 21.7 85.8999C21.5 85.8999 21.3 86.1999 21.2 86.4999C20.9 87.3999 19.8 86.9999 20 86.0999C20.1 85.6999 20.3 85.2999 20.4 85.1999C20.7 84.9999 22.3 81.3999 22.4 80.6999C22.4 80.3999 22.6 79.9999 22.7 79.5999C23.4 77.8999 23.6 77.1999 23.4 76.5999C23.3 76.1999 23.5 75.7999 24 75.4999C24.4 75.1999 24.9 74.4999 25.1 73.7999C25.3 73.1999 25.6 72.6999 25.9 72.6999C26.4 72.6999 26.8 73.6999 26.6 74.4999C26.5 74.7999 26.4 75.5999 26.3 76.2999C26.2 76.9999 26 77.9999 25.8 78.2999C25 79.1999 24.2 81.6999 24 83.4999C23.9 84.9999 23.9 85.3999 24.4 85.7999C24.7 86.0999 24.9 86.3999 24.7 86.4999C24.6 86.5999 24.4 86.5999 24.4 86.2999C24.2 85.7999 22.7 86.1999 22.7 86.6999C22.7 87.2999 21.4 89.7999 21.2 89.4999C21.1 89.2999 21 89.1999 20.8 89.2999ZM111.5 86.5999C111.5 86.4999 111.6 86.3999 111.8 86.2999C112 86.1999 112.1 86.1999 112.1 86.3999C112.1 86.5999 112 86.6999 111.8 86.6999C111.7 86.6999 111.5 86.6999 111.5 86.5999ZM64.1 85.9999C64.2 85.4999 64.4 85.0999 64.6 85.0999C65 85.0999 65 85.1999 64.5 86.1999C64.1 87.1999 63.8 87.0999 64.1 85.9999ZM112.6 84.8999C112.3 83.7999 112.6 83.4999 113 84.5999C113.4 85.5999 113.4 85.6999 113.1 85.6999C113 85.6999 112.7 85.3999 112.6 84.8999ZM102.8 78.7999C102.8 78.2999 103.2 77.6999 103.4 77.7999C103.9 78.0999 103.8 78.8999 103.2 78.8999C103 78.9999 102.8 78.8999 102.8 78.7999ZM13.6 80.3999C13.6 80.1999 13.7 80.0999 13.7 80.0999C13.8 80.0999 13.9 80.1999 14 80.3999C14.1 80.5999 14.1 80.6999 13.9 80.6999C13.8 80.7999 13.6 80.5999 13.6 80.3999ZM34.7 79.3999C34.5 78.9999 35 77.6999 35.6 77.2999C35.8 77.1999 36 76.7999 36 76.5999C36 76.3999 36.2 76.0999 36.3 75.8999C36.7 75.5999 36.4 77.4999 35.8 78.6999C35.5 79.6999 35.1 79.8999 34.7 79.3999ZM13.4 79.5999C13.2 79.6999 12.9 79.5999 12.7 79.2999C12.4 78.9999 12.4 78.7999 12.7 78.5999C12.9 78.4999 13.2 78.4999 13.3 78.7999C13.5 79.0999 13.6 79.0999 13.8 78.7999C13.9 78.5999 13.9 78.2999 13.7 78.2999C13.5 78.1999 13.3 77.9999 13.3 77.6999C13.3 77.1999 13.2 77.1999 13 77.5999C12.8 77.9999 12.6 77.9999 12 77.6999C11.6 77.4999 11.4 77.2999 11.6 77.2999C11.9 77.2999 11.9 77.0999 11.6 76.3999C11.3 75.6999 11.3 75.2999 11.7 74.6999C12.1 74.0999 12.1 73.8999 11.8 73.8999C11.2 73.8999 12.5 72.8999 13 72.8999C13.6 72.8999 15.9 70.8999 15.7 70.5999C15.6 70.4999 15.8 70.2999 16.1 70.2999C16.4 70.2999 17 69.8999 17.5 69.4999C18.7 68.2999 18.8 68.8999 17.6 71.3999C16.4 73.8999 15.1 77.8999 15.1 78.7999C15.1 79.6999 14.5 80.2999 14 79.7999C13.8 79.5999 13.5 79.4999 13.4 79.5999ZM130.4 76.4999C130.4 75.8999 130.4 75.8999 130.9 76.3999C131.2 76.6999 131.3 76.9999 131.2 77.1999C130.9 77.5999 130.4 77.1999 130.4 76.4999ZM102.7 76.5999C102.7 76.1999 103.2 76.2999 103.3 76.6999C103.4 76.8999 103.3 76.9999 103.1 76.9999C102.9 76.8999 102.7 76.7999 102.7 76.5999ZM35.6 74.5999C35.5 74.3999 35.5 74.2999 35.6 74.2999C35.7 74.2999 36 74.1999 36.3 74.0999C36.7 73.9999 36.8 73.9999 36.6 74.3999C36.3 74.9999 35.9 74.9999 35.6 74.5999ZM27.7 73.5999C27.6 72.9999 27.3 72.4999 27.2 72.4999C26.9 72.4999 27.1 70.2999 27.5 69.7999C27.7 69.5999 27.7 69.1999 27.6 68.8999C27.4 68.4999 27.5 68.3999 28.5 68.6999C29.1 68.8999 29.8 68.8999 30 68.7999C30.7 68.2999 30.7 69.5999 29.9 71.3999C29.5 72.3999 29.1 73.4999 29.1 73.7999C29.1 74.2999 28.8 74.5999 28.2 74.6999C28 74.6999 27.8 74.1999 27.7 73.5999ZM36.9 72.7999C37 72.2999 37.2 71.8999 37.3 71.7999C37.5 71.6999 37.6 71.3999 37.6 70.9999C37.6 70.5999 37.7 70.3999 37.9 70.5999C38.1 70.6999 38.2 70.6999 38.2 70.4999C38.2 70.0999 39.7 68.4999 40 68.4999C40.7 68.4999 40.6 69.0999 39.9 69.7999C39.5 70.1999 39.1 70.5999 39.1 70.7999C39.1 71.0999 37.2 73.5999 36.9 73.5999C36.8 73.5999 36.8 73.2999 36.9 72.7999ZM36.3 71.7999C36.3 71.2999 36.9 70.5999 37.1 70.7999C37.4 70.9999 37 71.9999 36.6 71.9999C36.4 71.9999 36.3 71.9999 36.3 71.7999ZM24.3 71.5999C24.3 71.3999 24.4 71.2999 24.4 71.2999C24.5 71.2999 24.6 71.3999 24.7 71.5999C24.8 71.7999 24.8 71.8999 24.6 71.8999C24.4 71.8999 24.3 71.7999 24.3 71.5999Z" fill="#CB283A"/>
<path d="M126.2 105.5C126.2 105.1 126.1 104.8 125.9 104.8C125.5 104.8 125.5 105.1 125.9 105.7C126.1 106.2 126.2 106.1 126.2 105.5Z" fill="#CB283A"/>
<path d="M149.8 69.9C150.7 69.7 151.8 69.5 152.4 69.6C153.4 69.7 153.4 69.7 153.2 68.8C153.1 68.3 153.1 67.8 153.3 67.6C153.5 67.5 153.6 67.6 153.5 67.8C153.1 68.9 154 68.5 154.6 67.4C154.9 66.8 155.4 66.2 155.7 66.2C156.4 66.2 156.1 63.2 155.4 62.7C155 62.4 154.9 62.1 155 61.4C155.4 59.6 155.1 58.3 153.9 56.4C153.3 55.4 152.5 54.3 152.3 54C152.1 53.7 151.7 52.6 151.4 51.6C151.2 50.5 150.8 49.6 150.7 49.6C150.6 49.6 150.4 49.3 150.4 48.8C150.4 48.4 150.1 47.8 149.8 47.6C149.5 47.4 149.1 46.9 149 46.5C148.9 46.1 148.5 45.8 148.1 45.7C147.6 45.7 147.4 45.4 147.4 45C147.4 44.6 147.2 44.4 146.9 44.4C146.6 44.4 146.3 44.3 146.2 44.1C146.1 43.9 145.8 43.8 145.6 43.7C145.4 43.7 145.1 43.7 144.9 43.6C144.7 43.6 144.6 43.1 144.6 42.6C144.6 42.1 144.4 41.7 144.3 41.7C144.1 41.7 142.8 42.9 141.4 44.4C138.1 47.8 135.9 49.8 135.5 49.8C135.3 49.8 134.9 50 134.6 50.3C134.2 50.7 133.9 50.7 133.7 50.5C133.5 50.3 133.7 49.9 134.3 49.2C134.8 48.7 135.5 47.7 136 47C136.4 46.3 137.4 45 138.2 44.1C139 43.2 139.7 42.1 139.8 41.6C139.9 41.1 140.1 40.7 140.3 40.7C140.5 40.7 140.6 40.6 140.6 40.4C140.6 40.2 140.4 40.1 140.1 40.1C139.7 40.1 139.7 40 139.9 39.5C140.1 39.1 140.1 38.9 139.9 38.9C139.5 38.9 138.9 37.3 138.8 35.8C138.8 35.1 138.6 34.5 138.4 34.5C138.3 34.5 138.2 34.3 138.3 34.1C138.4 33.9 138.3 33.4 138 33.1C137.7 32.7 137.3 32.6 136.5 32.8C135.9 32.9 135.2 33.2 135 33.5C134.7 33.7 134.2 34 133.7 34.1C133 34.3 133 34.3 133.5 33.9C133.9 33.7 134.2 33.4 134.3 33.2C134.6 32.8 133.6 31.4 133 31.4C132.5 31.4 132.4 29 132.9 28.8C133.1 28.7 133.1 28.5 133 28.3C132.7 27.9 131 27.8 130.8 28.3C130.7 28.5 130.3 28.6 130 28.6C129.6 28.6 128.8 29.2 128.1 29.9C126.9 31.1 126.9 31.2 126.9 30.3C126.9 29.6 126.8 29.5 126.4 29.9C126 30.3 125.9 30.2 125.9 29.5C125.9 28.6 126.6 27.9 126.8 28.6C126.9 28.8 127.1 28.9 127.2 28.8C127.4 28.7 127.3 28.3 126.9 28C126.4 27.5 126.4 27.4 126.9 27.4C127.3 27.4 127.4 27.1 127.4 26.2C127.4 25.5 127.3 25.3 127.2 25.7C127.1 26.1 126.9 26.4 126.7 26.4C126.5 26.4 126.4 25.9 126.5 24.9C126.6 23.8 126.5 23.2 126.2 22.8C125.9 22.5 125.7 21.8 125.7 21.3C125.7 20.8 125.6 20.4 125.4 20.3C125.2 20.2 125 19.7 124.9 19.2C124.8 18.7 124.6 18.3 124.4 18.3C124 18.3 122.4 15.8 122.6 15.5C122.7 15.3 122.6 15.1 122.3 15C122 14.9 121.8 14.5 121.8 14.1C121.8 13.7 121.6 13.3 121.4 13.4C121.2 13.4 120.8 13.1 120.5 12.8C120.2 12.4 119.7 12.2 119.5 12.2C119.2 12.2 119 12 119 11.7C119 11.4 118.7 11.2 118.4 11.2C118.1 11.2 117.7 11.1 117.6 10.9C117.5 10.7 117.1 10.6 116.6 10.6C116.2 10.6 115.8 10.7 115.7 10.9C115.2 11.7 114.9 11.1 114.9 9.5C114.9 8.6 114.7 7.7 114.6 7.6C114 7.3 112.1 8.4 111.4 9.6C110.7 10.7 110.6 10.8 110.3 10.2C110.1 9.8 109.9 8.9 109.8 8L109.7 6.5L108.4 6.6C107.4 6.7 107 6.6 106.4 5.9C105.8 5.3 105.4 5.2 104.7 5.3C104.1 5.4 103.8 5.4 103.8 5.1C103.8 4.8 103.5 4.8 102.9 4.9C102.4 5 101.9 5 101.9 4.8C101.7 4.2 95 4.6 92.2 5.3C89.6 6 88.3 6.1 84.3 6.1C81.1 6.1 79.9 6 79.5 5.7C79.2 5.4 78.7 5.3 78.3 5.3C77.5 5.3 74.7 4.8 75.1 4.7C75.3 4.7 74.7 4.5 73.8 4.2C72.8 4 72 3.9 71.7 4.1C71.4 4.3 71 4.2 70.5 3.9C70.1 3.6 69.6 3.5 69.4 3.6C69.2 3.7 68.7 3.5 68.4 3.2C68.1 2.9 67.6 2.7 67.5 2.8C67.4 2.9 67.2 2.8 67.2 2.6C67.2 2.4 67 2.3 66.6 2.5C66.2 2.6 66 2.6 66 2.2C66 1.9 65.7 1.6 65.4 1.5C64.2 0.999997 61 0.599996 60.1 0.699996C59.6 0.799996 58.6 0.899996 58 0.899996C57.4 0.899996 56.7 1.1 56.6 1.2C56.5 1.4 56.2 1.4 55.9 1.2C55.5 0.899996 55.2 0.899996 54.7 1.2C54.3 1.4 53.2 1.7 52.3 1.8C51.3 1.9 50.1 2.2 49.4 2.4C48.1 2.8 43.9 7.2 43.4 8.5C43.1 9.5 42.4 9.5 42.3 8.6C42 7.2 41.9 7.1 41.3 7.7C40.9 8.1 40.8 8.8 40.9 11.2C41 14.7 41.3 15.8 41.9 16C42.6 16.2 42.5 16.7 41.7 16.9C41.3 17 41.1 17.2 41.3 17.6C41.4 17.9 41.3 18.1 41.1 18.1C40.9 18.1 40.8 18 40.9 17.9C41 17.8 40.8 17.5 40.4 17.4C40 17.2 39.6 16.8 39.6 16.4C39.5 15.7 38.9 13.2 38.4 11.4C38.1 10.4 37.9 10.2 37.2 10.2C36.2 10.2 35 11.8 34.7 13.5C34.6 14.1 34.5 15.1 34.3 15.7C34.2 16.3 34.2 18.3 34.3 20L34.5 23.1L33.8 22.5C33.3 22.1 33.2 21.8 33.4 21.5C33.6 21.3 33.6 21 33.5 20.9C33.4 20.8 33.2 19.9 33.1 18.9C33 17.1 32.4 16 32.1 16.8C31.6 18.2 30.3 16.3 30.2 14.1C30.1 13 30.1 12.8 29.5 13C29.1 13.1 28.7 13.3 28.4 13.3C28.2 13.4 27.6 13.8 27.2 14.3C26.8 14.8 26.5 15.1 26.5 14.9C26.5 14.2 25.6 16.8 25.6 17.8C25.6 18.8 25 19.4 25 18.4C25 17.9 24.2 17.9 23.7 18.5C23.5 18.7 23.3 19.2 23.3 19.7C23.3 20.2 22.9 20.9 22.5 21.3C21.9 22 21.8 22.3 22 23.5C22.1 24.3 22.5 25.3 22.9 25.7C23.5 26.5 23.8 28 23.3 27.7C23.1 27.6 22.9 27.7 22.9 27.9C22.7 28.5 21.3 24.7 21.1 23.1C20.7 20.2 18.1 19.2 17 21.5C16.6 22.4 16.6 23.1 16.9 26.3C17.3 29.9 17.2 30.9 16.4 30.9C15.8 30.9 12.4 27.2 13 27.1C13.2 27.1 13 27 12.6 26.8C11.3 26.3 9.90001 27.7 10 29.3C10 30.4 10 30.4 9.50001 29.8C9.10001 29.3 9.00001 29.2 8.70001 29.7C8.40001 30.1 8.40001 30.1 8.50001 29.6C8.70001 28.8 8.20001 28.5 6.60001 28.5C5.60001 28.5 5.10001 28.8 4.00001 29.9C2.80001 31.1 2.70001 31.4 2.80001 32.3C3.00001 33.2 2.80001 33.6 1.90001 34.5C0.400012 36.1 0.100012 37.3 0.400012 41.2C0.600012 44.2 0.800013 44.8 1.70001 46.3C1.90001 46.6 2.10001 47 2.20001 47.2C2.70001 48.3 4.00001 49.1 7.00001 50.3C7.90001 50.7 9.00001 51.2 9.50001 51.4C10 51.6 10.9 51.9 11.4 51.9C12 52 13.2 52.1 14.2 52.3C16.7 52.8 18.8 52.5 21.2 51.3C22.4 50.7 24 50 24.9 49.7C25.8 49.4 26.5 49.1 26.5 49C26.5 48.9 26.1 48.5 25.5 48C24.9 47.4 24.7 47 24.9 46.9C25.1 46.8 25.4 46.8 25.6 47C25.9 47.2 26.1 47.2 26.4 46.8C26.7 46.4 26.9 46.3 27.1 46.6C27.3 46.8 27.3 46.9 27.2 46.8C26.9 46.6 26.2 47.3 26.2 47.7C26.2 47.9 26.6 47.9 27.1 47.8C27.7 47.7 28.2 47.7 28.4 48C28.6 48.3 29 48.5 29.2 48.5C29.4 48.5 29.7 48.7 29.8 49C29.9 49.3 30.3 49.5 30.6 49.5C30.9 49.5 31.3 49.6 31.3 49.8C31.3 50.2 34.2 51.6 34.9 51.6C35.1 51.6 35.5 51.8 35.7 52C35.9 52.2 36.8 52.4 37.6 52.4C38.4 52.4 39.6 52.6 40.1 53C41.1 53.5 41.1 53.5 42.8 52.7C43.8 52.2 44.6 51.8 44.6 51.6C44.6 51.2 43.8 50 42.8 48.9C41.7 47.7 41.1 46.3 41.5 45.9C41.6 45.8 41.9 45.9 42.1 46.2C42.3 46.5 43 46.9 43.7 47.2C44.7 47.6 45 47.7 45.4 47.3C46 46.8 46 46.6 45.2 45.8C44.9 45.5 44.6 44.8 44.6 44.3C44.6 43.8 44.7 43.5 44.7 43.5C44.9 43.5 47.3 46 47.7 46.7C48 47.1 48.8 47.9 49.7 48.3C51 49 51.4 49 52.1 48.7C52.6 48.5 53 48.3 53.1 48.4C53.5 48.5 53.8 48.3 53.8 48C53.8 47.5 52.7 46.5 52.4 46.7C52.3 46.8 52.2 46.6 52.2 46.2C52.2 45.8 51.7 44.1 51 42.4C50.4 40.7 50 39.3 50.1 39.3C50.2 39.3 50.4 39.4 50.4 39.6C50.4 40.2 51.5 41 53.2 41.8C54.8 42.6 55.9 44.1 56 45.5C56 46.3 56.7 47.7 57 47.7C57.6 47.7 59.3 49.6 59.1 50C59 50.3 59.3 50.7 60.3 51.1C62.5 52 65.7 52.7 66.4 52.4C67.3 52 67.7 51.9 71.2 51.7C73 51.6 74.7 51.3 74.9 51.1C75.2 50.8 75.9 50.8 77.4 51C78.6 51.2 79.7 51.2 79.8 51.1C80 51 80.3 51 80.5 51.2C81.3 51.8 86.1 51.8 85.6 51.2C85.4 50.9 87.9 51 88.4 51.4C88.8 51.7 92.2 52.2 93.1 52.1C93.5 52 93.6 52.2 93.5 52.7C93.4 53.3 93.5 53.3 94.1 53.1C94.7 52.9 94.9 53 95.1 53.4C95.3 54 97.2 54.8 99.2 55.2C99.6 55.3 101.1 55.6 102.4 55.8C103.7 56.1 105.3 56.3 106 56.3C106.6 56.3 107.2 56.4 107.2 56.5C107.2 56.6 107.6 56.7 108 56.7C108.4 56.7 109.4 57 110.3 57.3C111.6 57.8 113.3 58.1 115.5 58.1C115.7 58.1 115.8 58.3 115.7 58.6C115.5 59.1 117.7 61.3 118.3 61.3C118.5 61.3 119.1 61.6 119.7 62C120.7 62.7 121.4 62.9 125.8 64.1C128.7 64.9 134.1 65.2 136.2 64.8C138.6 64.3 138.5 64.2 139.2 65.8C139.8 67.1 140.5 67.7 140.5 66.8C140.5 66.6 140.7 66.5 140.9 66.6C141.1 66.7 141.3 66.9 141.2 67.1C141.1 67.6 142.7 68.7 143.6 68.7C144 68.7 144.7 68.8 145.1 69C146.5 70.2 148.2 70.3 149.8 69.9ZM150.7 62.4C150.9 61.7 151.5 61.5 151.6 62.2C151.6 62.8 151.5 63.1 151 63.1C150.6 63.1 150.5 62.9 150.7 62.4ZM127.3 58.1C127.2 57.9 127.2 57.6 127.5 57.5C128 57.2 129 57.6 129.1 58.1C129 58.5 127.6 58.6 127.3 58.1ZM113.5 57.2C113.1 56.6 113.2 56.6 113.8 56.6C114.6 56.6 115.1 55.8 114.7 55.3C114.6 55.1 114.7 55 114.9 55.1C115.3 55.2 115.7 54.7 116 53.7C116.1 53.4 116.4 53.1 116.7 53.1C117.1 53.1 117.1 53.3 117 53.7C116.9 54 116.7 54.6 116.7 55.1C116.6 55.6 116.4 55.9 116.3 55.8C116.1 55.7 115.8 56.1 115.5 56.6C115.2 57.1 114.9 57.5 114.7 57.4C114.5 57.3 114.4 57.4 114.4 57.6C114.4 58 114 57.8 113.5 57.2ZM127.6 55.9C127.7 55.7 128 55.6 128.3 55.6C128.7 55.6 128.7 55.7 128.2 55.9C127.4 56.3 127.4 56.3 127.6 55.9ZM107.1 55.2C107 54.4 107.1 54.2 107.5 54.2C107.8 54.2 108 54.4 108 54.6C108 54.8 108.1 55.3 108.2 55.7C108.4 56.3 108.3 56.4 107.8 56.3C107.5 56.2 107.2 55.8 107.1 55.2ZM111.7 54.8C111.2 54.4 111.1 54.3 111.5 53.6C111.7 53.2 111.8 52.7 111.7 52.5C111.5 52.2 112.3 51.2 114.5 49.3C115.7 48.3 116.7 46.8 116.9 45.9C116.9 45.8 117 45.6 117 45.4C117 45.3 117.1 45.1 117 44.9C117 44.8 117.1 44.7 117.3 44.7C117.5 44.7 117.6 44.3 117.6 43.9C117.6 43.4 117.8 43 118.1 42.9C118.9 42.6 119.5 41.9 119.3 41.5C119.2 41.3 119.5 41.1 120 41C120.5 40.9 121 40.5 121.1 40.1C121.2 39.7 121.5 39.2 121.8 38.9C122.1 38.6 122.5 38.1 122.7 37.7C123 37.2 123.1 37.2 123.3 37.6C123.6 38.3 121.7 41.7 121 41.8C120.5 41.8 114.9 50.1 114.7 51.2C114.7 51.4 114.5 52 114.3 52.5C114.1 53 114 53.8 114 54.3C114 55.1 113.9 55.2 113.1 55.2C112.7 55.3 112 55.1 111.7 54.8ZM142.4 51.6C143.1 51 143.6 50.3 143.5 50.1C143.4 49.9 143.6 49.7 143.8 49.7C144.3 49.7 145 50.6 145.1 51.3C145.1 51.9 144.9 52 143 52.4C142.4 52.5 141.9 52.9 141.8 53.1C141.6 53.5 141.6 53.5 141.5 53.2C141.3 52.9 141.8 52.2 142.4 51.6ZM106.4 53C106.4 52.6 106.1 52.1 105.8 52C105.3 51.7 105.3 51.6 105.9 50.8C107 49.2 107.3 49.4 107.3 51.7C107.3 53.1 107.1 53.7 106.9 53.7C106.6 53.7 106.4 53.4 106.4 53ZM138.4 52.7C138.4 52.6 138.5 52.5 138.7 52.3C138.9 52.2 139 52.3 139 52.4C139 52.6 138.9 52.8 138.7 52.8C138.6 52.9 138.4 52.8 138.4 52.7ZM129.4 52.7C129.3 52.5 129.4 52.4 129.7 52.4C130 52.4 130.2 52.5 130.2 52.7C130.2 52.9 130.1 53 129.9 53C129.8 53 129.5 52.9 129.4 52.7ZM140.6 51.9C140.9 51.5 141.2 51.3 141.4 51.2C141.5 51.2 141.4 51.5 141.1 51.8C140.8 52.2 140.5 52.4 140.3 52.5C140.1 52.5 140.3 52.2 140.6 51.9ZM129.9 51.8C129.9 51.6 130 51.4 130.2 51.3C130.4 51.2 130.5 51.3 130.5 51.6C130.5 51.9 130.4 52.1 130.2 52.1C130 52.1 129.9 51.9 129.9 51.8ZM131.1 49.7C131.1 49.6 131.2 49.5 131.4 49.3C131.6 49.2 131.7 49.3 131.7 49.4C131.7 49.6 131.6 49.8 131.4 49.8C131.2 49.8 131.1 49.8 131.1 49.7ZM85.2 49.8C85.4 49.5 86.3 49.3 86.3 49.6C86.3 49.7 86.1 50 85.9 50.2C85.5 50.7 84.9 50.4 85.2 49.8ZM96.5 49.4C96.5 49.3 96.6 49.2 96.8 49.1C97 49 97.1 49 97.1 49.2C97.1 49.4 97 49.5 96.8 49.5C96.6 49.6 96.5 49.5 96.5 49.4ZM115.6 46.1C115.7 46 116 46 116.2 46.1C116.4 46.2 116.4 46.3 116 46.3C115.6 46.3 115.5 46.3 115.6 46.1ZM72.2 43.7C72.2 43.4 72 43.1 71.8 43.1C71.6 43.1 71.3 42.9 71.2 42.6C70.9 41.8 70.9 40.9 71.3 40.9C71.5 40.9 71.6 40.7 71.6 40.4C71.6 39.7 72.1 39.8 73.2 40.8C73.8 41.3 74.1 41.7 74 41.7C73.9 41.7 74 42 74.2 42.3C74.4 42.7 74.7 42.9 74.9 42.7C75.1 42.6 75.2 42.9 75.2 43.3C75.2 43.8 75.4 44.1 75.9 44.3C76.6 44.5 76.6 44.5 75.6 45.5L74.6 46.5L73.5 45.3C72.8 44.8 72.3 44 72.2 43.7ZM94.7 45.3C94.8 45.1 95 44.9 95.2 45C95.4 45.1 95.4 45.3 95.1 45.5C94.5 45.9 94.5 45.9 94.7 45.3ZM25.7 46.2C25.8 46.1 25.5 45.6 25.1 45.1C24.7 44.6 24.4 44 24.4 43.8C24.4 43.6 24.2 43.4 23.9 43.3C23.6 43.2 23.4 42.8 23.4 42.3C23.4 41.8 23.2 41.5 23 41.5C22.8 41.5 22.4 41.1 22.1 40.6C21.4 39.4 20.6 39.4 20.4 40.5C20.2 41.5 19.5 41.5 18.7 40.4C18.2 39.7 18.1 39.4 18.4 39.1C18.7 38.8 18.6 38.5 18.2 37.8C17.5 36.7 17.7 36.6 19.3 37.4C19.9 37.7 20.8 38.1 21.2 38.3C22.7 38.9 23 39.2 23.1 40.1C23.2 40.6 23.5 41.3 23.8 41.6C24.1 41.9 25 42.7 25.9 43.4C26.8 44.1 27.6 45 27.9 45.4C28.3 46 28.3 46 27.6 45.9C27.2 45.8 26.8 45.9 26.7 46.1C26.6 46.3 26.3 46.4 26.2 46.4C25.7 46.4 25.6 46.3 25.7 46.2ZM40.9 45.1C40.3 43.5 40.1 42.7 40.4 42.9C40.8 43.1 41.8 45.1 41.8 45.6C41.8 46.2 41.3 45.9 40.9 45.1ZM85.3 42.8C85.3 42.6 85.4 42.5 85.6 42.5C85.8 42.5 85.9 42.6 85.9 42.8C85.9 43 85.8 43.1 85.6 43.1C85.4 43.1 85.3 43 85.3 42.8ZM59.1 38.4C58.9 37.7 58.6 36.5 58.4 35.7C58.2 34.9 58 33.9 57.9 33.5C57.7 32.9 57.8 32.8 58.2 33.1C58.5 33.3 58.8 34.1 59.1 35C59.3 35.8 59.6 36.7 59.8 37C59.9 37.3 60 37.8 60 38.2C60 38.6 60.2 39 60.4 39.1C60.7 39.2 60.8 39.4 60.7 39.5C60.6 39.6 60.7 40.1 61 40.6C61.3 41.1 61.4 41.9 61.3 42.5C61.1 43.5 61.1 43.5 60.3 41.7C59.8 40.5 59.3 39.1 59.1 38.4ZM39.8 42C39.8 41.7 39.9 41.5 40.1 41.5C40.3 41.5 40.4 41.7 40.4 42C40.4 42.3 40.3 42.5 40.1 42.5C40 42.4 39.8 42.3 39.8 42ZM107.1 37.9C108.4 35.8 108.5 35.1 108 34.6C107.8 34.4 107.8 34.1 108 33.8C108.3 33.4 108.3 33.4 108.2 33.9C108 34.7 108.3 34.6 108.8 33.6C109.4 32.7 109.6 30.9 109.1 30.9C108.9 30.9 108.9 30.8 109 30.6C109.1 30.4 109.1 30.3 108.9 30.3C108.7 30.3 108.5 30.5 108.4 30.6C108.1 31.1 107.6 31 107.6 30.4C107.6 29.9 109.7 28.8 110.1 29.1C110.7 29.4 110.4 28.7 109.7 28.1C109.3 27.8 109.1 27.7 109.1 27.9C109.1 28.1 109 28.3 108.8 28.3C108.6 28.3 108.6 27.8 108.7 27.2C108.8 26.6 108.9 26 108.8 26C108.7 25.9 108.9 25.8 109.2 25.6C109.6 25.4 109.7 25.5 109.5 26.1C109.4 26.5 109.4 27 109.6 27.1C109.7 27.2 109.8 27.5 109.8 27.7C109.8 27.9 110 28.1 110.2 28.2C110.4 28.3 110.6 28.2 110.6 28C110.6 27.8 110.9 27.1 111.2 26.3C111.9 24.9 112 24.3 111.5 24.6C111.3 24.7 111.4 24.4 111.5 23.8C111.7 23.3 112 22.8 112.2 22.8C112.4 22.8 112.7 22.5 112.9 22.1C113.1 21.7 113.4 21.1 113.6 20.9C114.2 20 115.2 17.3 115 17.2C114.9 17.1 115.1 16.8 115.4 16.4C115.7 16 115.9 15.6 115.8 15.3C115.6 14.7 116.5 14.4 117.3 14.8C118.2 15.3 118.1 15.9 116.8 17.8C116.1 18.7 115.4 20 115.1 20.6C114.3 22.3 112.9 27.7 113.1 28.7C113.2 29.2 113.1 29.8 113 30C112.9 30.2 112.6 31 112.4 31.8C112.2 32.6 111.8 33.5 111.6 33.8C111.4 34.1 111.2 34.5 111.2 34.9C111.2 35.5 106.2 40.8 106 40.3C105.9 40 106.4 39 107.1 37.9ZM84.3 39.2C84.3 39 84.4 39.1 84.6 39.3C84.8 39.6 84.9 40 84.9 40.2C84.9 40.8 84.3 39.8 84.3 39.2ZM25.2 40.8C24.3 40 24.4 39.7 25.7 39.3L26.8 38.9V40.1C26.8 41.6 26.3 41.8 25.2 40.8ZM88.5 38.7C88.6 38.4 88.7 37.7 88.8 37.3C88.9 36.8 89.2 36.4 89.4 36.4C89.6 36.4 89.9 36.1 89.9 35.7C90 35 90.1 34.9 92 34.8C92.5 34.8 92.8 34.5 92.9 34C93 33.6 93.4 33 93.8 32.7C94.5 32.2 94.5 32.2 94.4 33C94.3 33.4 94 33.9 93.7 34.1C93.4 34.3 93.1 34.6 93.1 34.9C93.1 35.4 89.3 39.3 88.7 39.3C88.5 39.3 88.4 39 88.5 38.7ZM96.8 38.4C96.7 38.2 96.8 38.1 97.1 38.1C97.4 38.1 97.6 38.2 97.6 38.4C97.6 38.6 97.5 38.7 97.3 38.7C97.1 38.8 96.9 38.6 96.8 38.4ZM85.4 38.3C85.5 38 85.4 38 85.1 38.1C84.8 38.2 84.6 38.2 84.7 38C85 37.5 85.8 37.6 85.8 38.1C85.8 38.4 85.7 38.6 85.5 38.6C85.3 38.7 85.2 38.5 85.4 38.3ZM86.1 35.8C86.1 35.4 86.3 35.2 86.6 35.2C87.1 35.2 87.2 35.2 86.9 35.9C86.6 36.6 86.1 36.6 86.1 35.8ZM37.5 36.8C37.5 36.6 37.6 36.5 37.8 36.5C38 36.5 38.1 36.7 38.1 37C38.1 37.3 38 37.4 37.8 37.3C37.7 37.1 37.5 36.9 37.5 36.8ZM36.4 33.6C36.1 32.6 35.5 31.3 35.2 30.6C34.9 29.9 34.4 28.4 34.2 27.3C34 26.2 33.7 25.2 33.5 25.1C32.9 24.9 33.2 24.4 33.9 24.4C34.6 24.4 34.7 24.7 35.4 27.5C35.8 29.2 36.2 30.8 36.2 31.1C36.2 31.4 36.4 31.7 36.5 31.7C36.7 31.8 36.9 32.4 37 33.1C37.1 33.8 37.3 34.3 37.5 34.3C37.7 34.2 37.7 34.5 37.7 34.9C37.6 35.3 37.6 35.8 37.6 35.9C37.5 36.5 37 35.6 36.4 33.6ZM98.7 34C98.9 33.6 99.1 33.1 99.3 32.7C99.5 32.3 99.6 31.8 99.6 31.4C99.6 31 99.8 30.8 100 30.8C100.8 30.8 100.8 31.3 100.2 32.1C99.9 32.5 99.6 33.1 99.6 33.4C99.6 33.9 99 34.7 98.6 34.7C98.5 34.6 98.6 34.3 98.7 34ZM86.7 34.2C86.7 34 86.8 33.9 87 33.9C87.2 33.9 87.3 34.1 87.3 34.4C87.3 34.7 87.2 34.8 87 34.7C86.8 34.6 86.7 34.4 86.7 34.2ZM123.4 32.2C123.4 32 123.5 31.9 123.7 31.9C123.9 31.9 124 32 124 32.2C124 32.4 123.9 32.5 123.7 32.5C123.6 32.5 123.4 32.4 123.4 32.2ZM107.2 31.6C107.8 31.2 108 31.4 107.7 32.1C107.6 32.5 107.4 32.6 107.1 32.3C106.9 32 106.9 31.8 107.2 31.6ZM94.2 31C94.2 30.7 94.3 30.6 94.5 30.7C94.7 30.8 94.8 31 94.6 31.2C94.4 31.6 94.2 31.6 94.2 31ZM57.8 31.2C57.9 31 58 31.1 58 31.6C58 32.1 57.9 32.2 57.8 32C57.8 31.8 57.8 31.4 57.8 31.2ZM42 31C42.1 29.2 42.1 29.2 42.4 29.7C42.7 30.2 42.9 31.3 42.8 32.2C42.8 33 42 31.9 42 31ZM47.8 31.5C47.6 31.5 47.6 31.6 47.7 31.8C47.8 32 47.8 32.1 47.6 32.1C47.2 32.1 47.1 31.6 47.6 31.3C48.1 31 48 30.1 47.4 30.3C47.1 30.4 46.9 30.3 46.9 30C46.9 29.4 47 29.4 47.9 29.8C48.3 30 48.5 30.4 48.5 31.1C48.5 31.6 48.4 31.9 48.3 31.7C48.2 31.7 48 31.5 47.8 31.5ZM23.6 31.4C23.8 31.2 24.4 31.7 24.2 32C24.1 32.2 23.9 32.2 23.7 31.9C23.6 31.7 23.5 31.5 23.6 31.4ZM17.3 31.8C17.4 31.6 17.7 31.5 18 31.5C18.3 31.5 18.4 31.6 18.3 31.8C18.2 32 17.9 32.1 17.6 32.1C17.3 32.1 17.2 32 17.3 31.8ZM125.2 28.9C125.4 28.7 125.6 28.6 125.6 28.8C125.6 29.2 125.2 29.6 125 29.4C124.9 29.4 125 29.1 125.2 28.9ZM95.6 28.2C95.9 27 96.1 27 96.5 28.3C96.7 29 96.6 29.1 96.1 29C95.6 28.9 95.5 28.7 95.6 28.2ZM100.8 28.2C100.8 28 101 27.9 101.3 27.9C101.6 27.9 101.7 28.1 101.6 28.4C101.4 28.8 100.8 28.7 100.8 28.2ZM23.3 29.8C23.2 29.4 23.2 29.2 23.4 29.2C23.6 29.2 23.7 29.5 23.7 29.8C23.7 30.2 23.7 30.4 23.6 30.4C23.5 30.4 23.4 30.1 23.3 29.8ZM96.7 26.1C96.7 25.6 96.9 25.1 97 25.1C97.2 25.1 97.2 25.3 97.1 25.6C97 25.9 96.9 26.3 96.9 26.6C96.9 26.8 96.8 27.1 96.7 27.1C96.7 27 96.7 26.6 96.7 26.1ZM57 26.8C57 26.2 56.9 24.2 56.8 22.3C56.7 19.3 56.8 18.8 57.3 18.4C57.6 18.2 58 17.9 58.1 17.9C58.5 17.9 58.4 19.4 58.1 20.7C57.9 21.3 57.8 23 57.8 24.5C57.8 26 57.8 27.3 57.7 27.4C57.4 28.1 57 27.7 57 26.8ZM56 26.8C56 26.6 56.1 26.6 56.3 26.7C56.5 26.8 56.6 27 56.6 27.2C56.6 27.4 56.5 27.4 56.3 27.3C56.2 27.2 56 27 56 26.8ZM43 26C42.8 25.2 42.5 24.1 42.4 23.5C42.3 23 42.1 22.2 42 21.8C41.8 20.9 41.8 20.9 42 18.8L42.2 17.2L42.7 19.3C43 20.4 43.2 21.5 43.3 21.7C43.3 21.9 43.4 22.1 43.6 22.3C44.1 23.1 44.3 25.4 43.9 26.4C43.7 27 43.5 27.5 43.4 27.5C43.4 27.5 43.2 26.8 43 26ZM102.5 24.4C102.6 23.9 102.8 23.4 103 23.4C103.4 23.4 103.4 23.9 103 24.2C102.8 24.3 102.7 24.7 102.7 25.1C102.7 25.5 102.6 25.7 102.5 25.6C102.4 25.5 102.4 24.9 102.5 24.4ZM97.9 25.1C97.9 24.9 98.1 24.8 98.2 24.8C98.4 24.8 98.5 24.9 98.4 25.1C98.3 25.3 98.1 25.4 98.1 25.4C98 25.4 97.9 25.3 97.9 25.1ZM109.6 24.3C109.6 24.1 109.8 23.9 110.1 23.8C110.5 23.6 110.5 23.5 110.2 23.3C109.9 23.1 110 22.9 110.4 22.5C110.8 22.2 111 21.7 111 21.5C111 21.3 111.1 21.1 111.3 21.1C111.8 21.1 111.7 21.9 111.1 23.3C110.8 24.1 110.4 24.6 110 24.6C109.9 24.5 109.6 24.4 109.6 24.3ZM97.7 23.4C97.8 22.8 98 22.1 98.2 21.8C98.4 21.5 98.6 20.8 98.6 20.2C98.6 19.6 98.7 19 98.8 18.9C98.9 18.8 99 18.4 99 18.1C99 17.8 99.2 17.5 99.4 17.5C99.6 17.5 99.7 17.2 99.6 16.9C99.5 16.5 99.6 16.3 99.9 16.3C100.3 16.3 100.3 16.2 100 15.7C99.6 14.9 100.1 14.3 101.4 14C102.8 13.7 103.3 14.1 102.8 15.4C101.7 18.5 100.6 20.5 100.2 20.3C99.9 20.2 99.7 20.4 99.8 20.9C99.8 21.3 99.7 21.7 99.5 21.7C99.3 21.7 99.2 21.8 99.3 21.9C99.4 22 99.1 22.5 98.7 22.9C98.3 23.3 98 23.9 98 24.1C98 24.3 97.9 24.5 97.8 24.5C97.6 24.5 97.6 24 97.7 23.4ZM103.1 22.5C103 22.3 103 22.2 103.2 22.2C103.4 22.2 103.5 22.3 103.5 22.5C103.5 22.7 103.4 22.8 103.4 22.8C103.4 22.8 103.2 22.6 103.1 22.5ZM55.8 22.5C55.7 22.3 55.7 22.1 55.9 22C56.1 21.9 56.2 22 56.2 22.3C56.3 22.8 56.1 22.9 55.8 22.5ZM102.9 21C102.9 20.7 103 20.5 103.2 20.5C103.4 20.5 103.4 20.3 103.3 20C103.2 19.7 103.3 19.5 103.4 19.5C103.8 19.5 104.4 20.5 104.2 21C104.1 21.7 102.9 21.6 102.9 21ZM111.9 20.3C112.1 19.7 112.8 19.6 112.8 20.2C112.8 20.5 112.6 20.7 112.3 20.7C112 20.7 111.8 20.5 111.9 20.3ZM47.9 21.5C47.6 21.3 48 20.4 48.3 20.4C48.5 20.4 48.6 20.7 48.6 21C48.6 21.6 48.3 21.8 47.9 21.5ZM41.1 20C41.2 19.7 41.3 19.9 41.3 20.4C41.3 20.9 41.3 21.2 41.2 21C41 20.7 41 20.3 41.1 20ZM104 18.8C103.9 18.5 103.9 18.3 104.1 18.3C104.3 18.3 104.4 18.5 104.4 18.8C104.4 19.1 104.4 19.3 104.3 19.3C104.3 19.3 104.1 19.1 104 18.8ZM55.8 19.8C55.7 19.5 55.7 19.3 55.9 19.3C56.1 19.3 56.2 19.5 56.2 19.8C56.2 20.1 56.2 20.3 56.1 20.3C56 20.2 55.9 20 55.8 19.8ZM113.3 18.1C113.3 17.9 113.4 17.9 113.6 18C113.8 18.1 113.9 18.3 113.9 18.5C113.9 18.7 113.8 18.7 113.6 18.6C113.5 18.5 113.3 18.3 113.3 18.1ZM54.8 19.3C54.8 18.9 54.9 18.7 55 18.7C55.1 18.7 55.2 19 55.3 19.3C55.3 19.7 55.2 19.9 55.1 19.9C54.9 19.9 54.8 19.7 54.8 19.3ZM95.2 17C95.7 16.4 95.8 16.2 95.5 16C95.2 15.8 95.3 15.7 95.8 15.5C96.2 15.3 96.6 15.3 96.6 15.3C96.7 15.4 96.4 16.1 96.1 16.9C95.6 18.1 95.4 18.3 95 18C94.6 17.8 94.7 17.7 95.2 17ZM113.6 16.9C113.8 16.6 113.9 16.2 113.9 16C113.9 15.8 114.1 15.6 114.3 15.6C114.5 15.5 114.6 15.6 114.5 15.8C114.4 16 114.4 16.2 114.7 16.2C114.9 16.2 114.8 16.5 114.3 16.8C113.3 17.6 113.2 17.6 113.6 16.9ZM104.3 16.7C104.4 16.5 104.6 16.5 104.8 16.6C105 16.7 105 16.9 104.9 17.1C104.8 17.3 104.6 17.3 104.4 17.2C104.2 17.1 104.2 16.9 104.3 16.7ZM47.1 16.9C47.3 16.7 47.4 16.8 47.4 17.2C47.4 17.6 47.3 17.7 47.1 17.5C46.9 17.3 46.9 17.1 47.1 16.9ZM47.3 15.9C46.7 15.5 46.7 15.5 47.5 14.9C48.4 14.2 48.8 14.3 48.1 15.1C47.6 15.6 48 16.2 48.6 15.8C48.8 15.7 48.9 15.8 48.9 15.9C48.8 16.3 48 16.3 47.3 15.9ZM114.7 13.9C114.8 13.6 115 13.4 115.2 13.4C115.4 13.4 115.3 13.7 115.1 14.1C114.7 14.8 114.4 14.7 114.7 13.9ZM58 15.1C58 14.7 58.2 14.5 58.4 14.5C58.7 14.5 58.8 14.7 58.7 15.1C58.6 15.5 58.4 15.7 58.3 15.7C58.2 15.8 58 15.5 58 15.1ZM42.2 15.3C42.2 15 42.3 14.8 42.5 14.8C42.7 14.8 42.7 15 42.6 15.3C42.5 15.6 42.4 15.8 42.3 15.8C42.2 15.7 42.2 15.5 42.2 15.3ZM117 12.3C117 12.1 117.1 12 117.1 12C117.2 12 117.3 12.1 117.4 12.3C117.5 12.5 117.5 12.6 117.3 12.6C117.2 12.7 117 12.5 117 12.3ZM114.8 12.4C114.8 12.2 114.9 12.1 114.9 12.1C115 12.1 115.1 12.2 115.3 12.4C115.4 12.6 115.3 12.7 115.2 12.7C115 12.7 114.8 12.6 114.8 12.4ZM48.4 13.4C48.2 13.4 48.2 13.6 48.3 13.7C48.4 13.9 48.4 14 48.1 13.9C47.9 13.8 47.6 13.3 47.6 12.8C47.5 12 47.6 11.8 48.1 11.8C48.8 11.8 49 12.4 48.3 12.5C48.1 12.5 48.2 12.7 48.5 12.8C48.8 13 49.1 13.4 49 13.7C49 14 48.9 14.1 48.8 13.9C48.8 13.6 48.6 13.4 48.4 13.4ZM108.3 7.4C108.3 7.2 108.4 7.2 108.6 7.3C108.8 7.4 108.9 7.6 108.9 7.8C108.9 8 108.8 8 108.6 7.9C108.5 7.8 108.3 7.6 108.3 7.4Z" fill="#CB283A"/>
<path d="M22.3 83.6999C22.3 83.4999 22.2 83.4999 22 83.5999C21.8 83.6999 21.7 83.8999 21.7 83.8999C21.7 83.9999 21.8 83.9999 22 83.9999C22.1 84.0999 22.3 83.8999 22.3 83.6999Z" fill="#CB283A"/>
</svg>
