<svg width="195" height="195" viewBox="0 0 195 195" fill="none" xmlns="http://www.w3.org/2000/svg">
<path d="M97.5 194.7C151.182 194.7 194.7 151.182 194.7 97.5C194.7 43.8179 151.182 0.299988 97.5 0.299988C43.8179 0.299988 0.299988 43.8179 0.299988 97.5C0.299988 151.182 43.8179 194.7 97.5 194.7Z" fill="url(#paint0_radial_43_11)"/>
<path d="M170.4 97.5C170.4 98.1 170.4 98.8 170.4 99.4C170.2 109 168.1 118 164.5 126.3C163.9 127.6 163.3 128.9 162.7 130.2C162.3 131.1 161.8 132 161.3 132.8C148.9 155.2 125 170.3 97.6 170.3C70.8 170.3 47.4 155.9 34.7 134.3C30.7 127.4 27.7 119.8 26.1 111.7C26 111.1 25.9 110.4 25.8 109.8C25.1 105.8 24.7 101.6 24.7 97.4C24.7 93.2 25.1 89 25.8 85C25.9 84.4 26 83.7 26.2 83.1C30.2 62.9 42.6 45.7 59.6 35.2C70.7 28.4 83.7 24.5 97.7 24.5C108.7 24.5 119.1 26.9 128.4 31.3C143.7 38.4 156.2 50.7 163.5 66C164.1 67.2 164.6 68.4 165.1 69.7C168.4 77.7 170.3 86.4 170.5 95.6C170.4 96.2 170.4 96.9 170.4 97.5Z" fill="#FDFFD7"/>
<path d="M170.4 97.5C170.4 98.1 170.4 98.8 170.4 99.4C170.2 109 168.1 118 164.5 126.3C163.9 127.6 163.3 128.9 162.7 130.2H84.3999V149.9L46.2999 125L26 111.8L25.7 111.6L4.19995 97.5L25.7 83.4L26.0999 83.2L39 74.8L47 69.5L68.3 55.6L84.3 45V66.1H163.3C163.9 67.3 164.4 68.5 164.9 69.8C168.2 77.8 170.1 86.5 170.3 95.7C170.4 96.2 170.4 96.9 170.4 97.5Z" fill="#6D4444"/>
<path d="M143.5 86.7C139.8 96.2 132 104.6 121.9 107.4C110.3 110.7 97.6 106.4 85.7 108.3C80.1 109.2 74.8 111.4 69.2 112.2C63 113.1 56.4 112.2 50.9 109.1C45.5 106 41.3 100.7 40.4 94.8C39.7 90.5 40.7 86.1 41.8 81.9C43 77.6 44.4 73.1 46.9 69.5L68.2 55.6L84.3 45V66H146.8C147 73.1 146.1 80.1 143.5 86.7Z" fill="#875353"/>
<path d="M75 94C74.2 97.8 73.1 101.6 71.2 104.9C69.3 108.1 66.8 110.7 64.1 113.1C58.6 118 52.6 122 46.2 125L25.6 111.5L4.09998 97.4L25.6 83.3L68.2 55.4C68.4 56.7 68.7 57.9 69.1 59.1C70.6 63.6 73.1 67.6 74.6 72.2C76.8 79.2 76.4 86.8 75 94Z" fill="#AA6D6D"/>
<defs>
<radialGradient id="paint0_radial_43_11" cx="0" cy="0" r="1" gradientUnits="userSpaceOnUse" gradientTransform="translate(97.5177 97.4627) scale(97.1565)">
<stop stop-color="#FAE061"/>
<stop offset="0.3671" stop-color="#FBD65D"/>
<stop offset="0.9966" stop-color="#FFBA51"/>
<stop offset="1" stop-color="#FFBA51"/>
</radialGradient>
</defs>
</svg>
