<svg width="195" height="196" viewBox="0 0 195 196" fill="none" xmlns="http://www.w3.org/2000/svg">
<path d="M97.3 195.3C150.982 195.3 194.5 151.782 194.5 98.1C194.5 44.4179 150.982 0.900024 97.3 0.900024C43.6179 0.900024 0.0999756 44.4179 0.0999756 98.1C0.0999756 151.782 43.6179 195.3 97.3 195.3Z" fill="#FFD659"/>
<path d="M170.1 98.1C170.1 104.5 169.3 110.7 167.7 116.7C166 123.1 163.5 129.2 160.2 134.7C158.3 138 156.1 141.1 153.7 144C153.4 144.4 153 144.8 152.7 145.2C151.6 146.5 150.5 147.7 149.3 149C147.2 151.1 145 153.1 142.7 155C141.7 155.8 140.7 156.6 139.7 157.3C138.6 158.1 137.4 158.9 136.2 159.7C135.5 160.2 134.7 160.6 133.9 161.1C128.3 164.4 122.2 166.9 115.8 168.6C109.9 170.2 103.6 171 97.2 171C90.7 171 84.5 170.2 78.5 168.6C72.1 166.9 66.1 164.4 60.5 161.1C59.4 160.5 58.4 159.8 57.4 159.2C56.5 158.6 55.6 158 54.7 157.4C53.7 156.7 52.7 155.9 51.7 155.1C49.9 153.7 48.2 152.2 46.6 150.6C45.1 149.1 43.6 147.6 42.2 145.9C42.1 145.8 42 145.7 41.9 145.6C39 142.2 36.4 138.6 34.2 134.8C31 129.2 28.4 123.2 26.7 116.8C25.1 110.8 24.3 104.6 24.3 98.1C24.3 91.7 25.1 85.5 26.7 79.5C27.2 77.7 27.7 75.9 28.3 74.1C28.5 73.4 28.8 72.7 29.1 72C29.1 72 29.1 72 29.1 71.9C29.6 70.5 30.3 69 30.9 67.6C31.9 65.4 33 63.4 34.2 61.3C35.4 59.3 36.6 57.4 37.9 55.6C43.9 47.2 51.6 40.2 60.5 35C61.4 34.5 62.3 34 63.2 33.5C66.3 31.8 69.6 30.4 72.9 29.2C74.8 28.5 76.7 28 78.6 27.4C83.6 26.1 88.9 25.3 94.3 25.1C95.2 25.1 96.2 25 97.1 25C103.6 25 109.8 25.8 115.8 27.4C117.7 27.9 119.6 28.5 121.4 29.1C123.8 30 126.1 30.9 128.4 32C129.3 32.4 130.2 32.9 131.1 33.4C132 33.9 132.9 34.4 133.8 34.9C144.7 41.2 153.8 50.4 160.1 61.2C161.3 63.2 162.4 65.3 163.4 67.5C164 68.9 164.6 70.3 165.2 71.8C165.3 72 165.4 72.3 165.5 72.6C165.9 73.8 166.3 74.9 166.7 76.1C167 77.1 167.3 78.2 167.6 79.3C169.3 85.4 170.1 91.6 170.1 98.1Z" fill="#FDFFD7"/>
<path d="M118.6 37L113.4 18.7H81.1L76.1 36.9C82.8 34.6 89.9 33.4 97.2 33.4C104.6 33.4 111.8 34.7 118.6 37Z" fill="#D7D7D7"/>
<path d="M158.4 119.2L176.6 114.2V81.9L158.3 76.7C160.7 83.5 161.9 90.6 161.9 98C161.9 105.4 160.7 112.5 158.4 119.2Z" fill="#EAEAEA"/>
<path d="M36.1 77L17.9 82V114.3L36.2 119.5C33.8 112.7 32.6 105.6 32.6 98.2C32.6 90.8 33.8 83.7 36.1 77Z" fill="#AFAFAF"/>
<path d="M155.5 70L164.8 53.4L141.9 30.5L125.5 39.9C131.9 43 137.8 47.2 142.9 52.3C148.2 57.6 152.4 63.5 155.5 70Z" fill="#EAEAEA"/>
<path d="M160.3 134.7C158.4 138 156.2 141.1 153.8 144C153.5 144.4 153.1 144.8 152.8 145.2C151.7 146.5 150.6 147.7 149.4 149C147.3 151.1 145.1 153.1 142.8 155C141.8 155.8 140.8 156.6 139.8 157.3C138.7 158.1 137.5 158.9 136.3 159.7C135.6 160.2 134.8 160.6 134 161.1L125.6 156.3C132 153.2 137.9 149 143 143.9C148.2 138.7 152.4 132.7 155.5 126.3L160.3 134.7Z" fill="#D7D7D7"/>
<path d="M69 156.2L60.6 161C59.5 160.4 58.5 159.7 57.5 159.1C56.6 158.5 55.7 157.9 54.8 157.3C53.8 156.6 52.8 155.8 51.8 155C50 153.6 48.3 152.1 46.7 150.5C45.2 149 43.7 147.5 42.3 145.8C42.2 145.7 42.1 145.6 42 145.5C39.1 142.1 36.5 138.5 34.3 134.7L39.1 126.2C42.2 132.7 46.4 138.6 51.6 143.8C56.7 149 62.6 153.1 69 156.2Z" fill="#AFAFAF"/>
<path d="M158.3 76.8C157.5 74.5 156.6 72.2 155.5 70C152.4 63.5 148.2 57.6 143 52.4C137.8 47.2 132 43.1 125.6 39.9C123.3 38.8 121 37.8 118.6 37C111.8 34.6 104.7 33.4 97.3 33.4C90 33.4 82.9 34.6 76.2 36.9C73.7 37.7 71.4 38.7 69 39.9L60.6 35.1L52.6 30.6L29.7 53.4L34.2 61.4L39 69.9C37.9 72.2 36.9 74.5 36.1 76.9C33.8 83.6 32.6 90.7 32.6 98C32.6 105.4 33.8 112.6 36.2 119.3C37 121.6 37.9 123.9 39 126.1C42.1 132.6 46.3 138.5 51.5 143.7C56.7 148.9 62.4999 153 68.8999 156.1C71.1999 157.2 73.4999 158.2 75.8999 159L78.5 168.4C84.5 170 90.7 170.8 97.2 170.8C103.6 170.8 109.8 170 115.8 168.4L118.4 159C120.8 158.2 123.2 157.2 125.6 156C132 152.9 137.9 148.7 143 143.6C148.2 138.4 152.4 132.4 155.5 126C156.6 123.7 157.6 121.4 158.4 119C160.7 112.3 161.9 105.2 161.9 97.9C161.9 90.7 160.7 83.5 158.3 76.8ZM140.3 99.5C140.3 99.7 140.3 100 140.3 100.3C140.3 100.7 140.3 101 140.2 101.4C140.2 101.5 140.2 101.7 140.2 101.8C140.2 102.2 140.1 102.7 140.1 103.1C140.1 103.5 140 104 139.9 104.4C139.9 104.5 139.9 104.6 139.8 104.7C139.7 105.3 139.6 105.9 139.5 106.5V106.7C139.4 107.4 139.2 108.1 139 108.8C138.9 109.1 138.8 109.5 138.7 109.8C138.6 110.1 138.5 110.5 138.4 110.8C138.3 111.1 138.2 111.5 138.1 111.8C138 112.1 137.9 112.5 137.8 112.8C137.8 112.8 137.8 112.8 137.8 112.9C137.7 113.2 137.6 113.4 137.5 113.7C137.5 113.7 137.5 113.8 137.4 113.9C137.3 114.2 137.1 114.6 137 114.9C136.9 115.2 136.7 115.6 136.6 115.9C136.5 116.2 136.3 116.5 136.2 116.8C136.1 117.1 135.9 117.4 135.7 117.7C135.5 118 135.4 118.3 135.2 118.6C135.1 118.8 135 118.9 135 119.1C135 119.2 134.9 119.3 134.9 119.3C134.9 119.4 134.8 119.4 134.8 119.5C134.6 119.8 134.4 120.1 134.3 120.4C134.3 120.5 134.2 120.5 134.2 120.6C134.1 120.8 134 120.9 133.9 121.1C133.7 121.4 133.5 121.8 133.2 122.1C133 122.4 132.8 122.7 132.6 122.9C132.4 123.2 132.2 123.5 132 123.7C131.8 124 131.6 124.2 131.4 124.5C131.2 124.8 131 125 130.8 125.3C130.6 125.6 130.4 125.8 130.1 126.1C129.9 126.4 129.7 126.6 129.4 126.9C129.2 127.2 128.9 127.4 128.7 127.7C128.5 127.9 128.2 128.2 128 128.5C127.8 128.7 127.5 129 127.2 129.2C127 129.4 126.7 129.7 126.4 129.9C126.2 130.1 125.9 130.4 125.6 130.6C125.3 130.8 125.1 131.1 124.8 131.3C124.5 131.5 124.3 131.8 124 132C123.7 132.2 123.5 132.4 123.2 132.6C122.9 132.8 122.6 133 122.4 133.2C122.1 133.4 121.8 133.6 121.5 133.8C121.2 134 120.8 134.2 120.5 134.4C120.3 134.5 120.2 134.6 120 134.7C119.9 134.7 119.8 134.8 119.8 134.8C119.5 135 119.2 135.2 118.9 135.3C118.8 135.3 118.8 135.4 118.7 135.4C118.6 135.5 118.5 135.5 118.5 135.5C118.3 135.6 118.2 135.7 118 135.7C117.7 135.9 117.4 136 117.1 136.2C116.8 136.4 116.5 136.5 116.2 136.7C115.9 136.9 115.6 137 115.3 137.2C115 137.3 114.7 137.5 114.3 137.6C114 137.7 113.7 137.9 113.3 138C113.3 138 113.2 138 113.2 138.1C112.9 138.2 112.7 138.3 112.4 138.4C112.4 138.4 112.4 138.4 112.3 138.4C112 138.5 111.7 138.6 111.3 138.7C111 138.8 110.6 138.9 110.3 139C110 139.1 109.6 139.2 109.3 139.3C109 139.4 108.6 139.5 108.3 139.6C107.6 139.8 106.9 139.9 106.2 140.1C106.1 140.1 106.1 140.1 106 140.1C105.4 140.2 104.8 140.3 104.2 140.4C104.1 140.4 104 140.4 103.9 140.4C103.5 140.5 103 140.5 102.6 140.6C102.2 140.7 101.7 140.7 101.3 140.7C101.2 140.7 101 140.7 100.9 140.7C100.5 140.7 100.2 140.8 99.8 140.8C99.6 140.8 99.3 140.8 99 140.8C98.5 140.8 98 140.8 97.6 140.8C97.1 140.8 96.6 140.8 96.1 140.8C95.8 140.8 95.6 140.8 95.3 140.8C94.8 140.8 94.3 140.7 93.8 140.7C93.4 140.7 93 140.6 92.6 140.6C92 140.5 91.4 140.5 90.8 140.4C90.2 140.3 89.6 140.2 89.1 140.1C89 140.1 88.9999 140.1 88.8999 140.1C88.1999 140 87.5 139.8 86.8 139.6C86.4 139.5 86.1 139.4 85.7 139.3C85.4 139.2 85.1999 139.2 84.8999 139.1C84.4999 139 84.1 138.9 83.7 138.7C83.4 138.6 83 138.5 82.7 138.4C82 138.2 81.4 137.9 80.7 137.6C80.4 137.5 80 137.3 79.7 137.2C79.4 137.1 79.1 136.9 78.8 136.7C78.5 136.6 78.1999 136.4 77.8999 136.2C77.5999 136.1 77.3 135.9 77 135.7C76.8 135.6 76.7 135.5 76.5 135.5C76.4 135.5 76.3 135.4 76.3 135.4C76.2 135.4 76.2 135.3 76.1 135.3C75.8 135.1 75.5 135 75.2 134.8C75 134.6 74.6999 134.5 74.3999 134.3C74.0999 134.1 73.6999 133.9 73.3999 133.7C73.0999 133.5 72.8 133.3 72.6 133.1C72.3 132.9 72 132.7 71.8 132.5C71.5 132.3 71.3 132.1 71 131.9C70.7 131.7 70.5 131.5 70.2 131.2C69.9 131 69.6999 130.8 69.3999 130.5C69.0999 130.3 68.9 130 68.6 129.8C68.3 129.6 68.1 129.3 67.8 129.1C67.6 128.9 67.4 128.7 67.1 128.5L67 128.4C66.9 128.3 66.8 128.2 66.7 128.1C66.6 128 66.4 127.8 66.3 127.7C66.1 127.5 66 127.3 65.8 127.2C65.8 127.2 65.8 127.1 65.7 127.1L65.6 127C65.6 127 65.6 127 65.6 126.9C65.4 126.7 65.0999 126.4 64.8999 126.1C64.5999 125.8 64.3 125.5 64.1 125.1C64 125 64 125 63.9 124.9C63.8 124.8 63.7 124.6 63.6 124.5C63.4 124.2 63.2 124 63 123.7C62.9 123.6 62.8 123.4 62.7 123.3C62.6 123.2 62.5 123.1 62.4 122.9C62.3 122.7 62.1 122.5 61.9 122.3C61.9 122.3 61.9 122.2 61.8 122.2L61.7 122.1C61.7 122.1 61.7 122.1 61.7 122C61.5 121.7 61.3 121.4 61.1 121.2C60.7 120.6 60.4 120 60 119.4C59.8 119.1 59.7 118.8 59.5 118.6C59.5 118.6 59.5 118.6 59.5 118.5C59.4 118.4 59.4 118.3 59.3 118.2C59.1 117.9 59 117.6 58.8 117.3C58.6 117 58.5 116.7 58.4 116.4C58.3 116.2 58.2 116 58.1 115.7C58.1 115.7 58.1 115.6 58 115.6C58 115.5 57.9 115.4 57.9 115.2C57.9 115.2 57.9 115.2 57.9 115.1C57.8 115 57.8 114.8 57.7 114.7C57.7 114.7 57.7 114.6 57.6 114.6C57.6 114.5 57.6 114.5 57.5 114.4C57.5 114.4 57.5 114.4 57.5 114.3C57.4 114.1 57.3 113.9 57.3 113.7C57.2 113.5 57.1 113.3 57.1 113.1C57.1 113 57 112.9 57 112.8C56.9 112.6 56.9 112.4 56.8 112.2C56.6 111.7 56.5 111.3 56.3 110.8C56.1 110.1 55.9 109.4 55.7 108.8C55.5 108.1 55.4 107.4 55.2 106.7C55.1 106 54.9 105.3 54.8 104.6C54.7 104.2 54.7 103.8 54.6 103.4C54.6 103.2 54.6 103 54.5 102.8C54.5 102.6 54.5 102.3 54.4 102.1C54.4 101.9 54.4 101.6 54.3 101.4C54.3 100.8 54.2 100.2 54.2 99.6C54.2 99.1 54.2 98.6 54.2 98.1C54.2 97.6 54.2 97.1 54.2 96.6C54.2 96.4 54.2 96.3 54.2 96.1C54.2 96 54.2 96 54.2 95.9C54.2 95.5 54.2 95.2 54.3 94.8C54.3 94.6 54.3 94.3 54.4 94.1C54.4 93.9 54.4 93.6 54.5 93.4C54.5 93.2 54.5 93 54.6 92.8C54.6 92.4 54.7 92 54.8 91.6C54.9 90.9 55 90.2 55.2 89.5C55.3 88.8 55.5 88.1 55.7 87.4C55.9 86.7 56.1 86 56.3 85.4C56.5 84.7 56.7 84.1 57 83.4C57.2 82.8 57.4 82.2 57.7 81.7C57.7 81.6 57.8 81.5 57.8 81.5C57.9 81.2 58.1 80.8 58.2 80.5C58.3 80.3 58.4 80.1 58.5 79.9C58.8 79.3 59 78.7 59.3 78.2C59.3 78.1 59.4 78 59.4 78C59.4 77.9 59.5 77.9 59.5 77.8C59.7 77.5 59.8 77.2 60 76.9C60.2 76.6 60.4 76.3 60.5 76C60.7 75.7 60.9 75.4 61 75.1C61.2 74.8 61.4 74.5 61.6 74.2C61.6 74.2 61.6 74.1 61.7 74.1C61.7 74.1 61.7 74.1 61.8 74C61.8 73.9 61.9 73.8 62 73.7C62.1 73.6 62.1 73.6 62.2 73.5C62.2 73.4 62.3 73.4 62.4 73.3C62.6 73 62.8 72.7 63 72.5C63.2 72.2 63.4 72 63.6 71.7C63.9 71.3 64.2 70.9 64.5 70.6C64.6 70.5 64.7 70.4 64.8 70.2C65.3 69.7 65.8 69.1 66.3 68.6C66.8 68.1 67.3 67.6 67.8 67.1C68.3 66.6 68.8999 66.1 69.3999 65.6C69.4999 65.5 69.6 65.4 69.8 65.3C70.2 65 70.5999 64.7 70.8999 64.4C71.1999 64.2 71.5 64 71.7 63.8C72 63.6 72.2 63.4 72.5 63.2C72.6 63.1 72.6 63.1 72.7 63C72.8 62.9 72.7999 62.9 72.8999 62.8C72.9999 62.7 73.1 62.7 73.2 62.6H73.3C73.3 62.6 73.3999 62.6 73.3999 62.5C73.6999 62.3 74 62.1 74.3 61.9C74.6 61.7 74.9 61.5 75.2 61.4C75.5 61.3 75.8 61 76.1 60.9C76.4 60.7 76.7 60.6 77 60.4C77.1 60.4 77.1 60.3 77.2 60.3C77.3 60.3 77.3999 60.2 77.3999 60.2C77.9999 59.9 78.5 59.6 79.1 59.3C79.3 59.2 79.5 59.1 79.7 59C80 58.9 80.3 58.7 80.7 58.6C80.8 58.6 80.8999 58.5 80.8999 58.5C81.4999 58.3 82.1 58 82.6 57.8C83.3 57.6 83.9 57.3 84.6 57.1C85.3 56.9 85.9 56.7 86.6 56.5C87.3 56.3 88 56.2 88.7 56C89.4 55.8 90.1 55.7 90.8 55.6C91.2 55.5 91.6 55.5 92 55.4C92.2 55.4 92.4 55.4 92.6 55.3C92.8 55.3 93.1 55.3 93.3 55.2C93.5 55.2 93.8 55.2 94 55.1C94.4 55.1 94.7 55.1 95.1 55C95.2 55 95.3 55 95.3 55C95.5 55 95.6 55 95.8 55C96.3 55 96.8 55 97.3 55C97.8 55 98.3 55 98.8 55C99.4 55 100 55 100.6 55.1C100.8 55.1 101.1 55.1 101.3 55.2C101.5 55.2 101.8 55.2 102 55.3C102.2 55.3 102.4 55.3 102.6 55.4C103 55.4 103.4 55.5 103.8 55.6C104.5 55.7 105.2 55.8 105.9 56C106.6 56.1 107.3 56.3 108 56.5C108.7 56.7 109.4 56.9 110 57.1C110.5 57.3 111 57.4 111.4 57.6C111.6 57.7 111.8 57.7 111.9 57.8C112 57.8 112.1 57.9 112.2 57.9C112.4 58 112.6 58.1 112.8 58.1C113 58.2 113.3 58.3 113.5 58.4C113.9 58.6 114.3 58.7 114.6 58.9C114.6 58.9 114.7 58.9 114.7 59C114.9 59.1 115.1 59.2 115.4 59.3C115.5 59.4 115.7 59.5 115.9 59.5C116.2 59.6 116.4 59.7 116.7 59.9C116.9 60 117.1 60.1 117.3 60.2C117.4 60.3 117.5 60.3 117.6 60.4C117.6 60.4 117.6 60.4 117.7 60.4C118.1 60.6 118.5 60.8 118.8 61C119 61.1 119.2 61.2 119.4 61.4C119.9 61.7 120.4 62 120.9 62.3C121 62.3 121 62.4 121.1 62.4C121.2 62.5 121.3 62.5 121.4 62.6L121.5 62.7C121.7 62.9 121.9 63 122.1 63.2C122.2 63.3 122.3 63.4 122.5 63.5C122.6 63.6 122.8 63.7 122.9 63.8C123.2 64 123.4 64.2 123.7 64.4C123.8 64.5 124 64.6 124.1 64.7C124.2 64.8 124.2 64.8 124.3 64.9C124.6 65.2 125 65.4 125.3 65.7C125.6 65.9 125.8 66.1 126.1 66.4C126.1 66.4 126.1 66.4 126.2 66.4C126.2 66.4 126.3 66.4 126.3 66.5L126.4 66.6C126.6 66.8 126.8 66.9 126.9 67.1C127 67.2 127.2 67.3 127.3 67.5C127.4 67.6 127.5 67.7 127.6 67.8C127.6 67.8 127.7 67.8 127.7 67.9C127.9 68.1 128.1 68.3 128.3 68.6C128.5 68.8 128.8 69.1 129 69.4C129.2 69.6 129.5 69.9 129.7 70.2C129.9 70.5 130.2 70.7 130.4 71C130.6 71.3 130.8 71.5 131 71.8C131.2 72.1 131.4 72.3 131.6 72.6C131.8 72.9 132 73.2 132.2 73.4C132.4 73.7 132.6 74 132.8 74.3C133 74.6 133.2 75 133.5 75.3C133.7 75.5 133.8 75.8 134 76.1C134.2 76.4 134.4 76.7 134.5 77C134.6 77.1 134.6 77.1 134.6 77.2C134.7 77.4 134.8 77.5 134.9 77.7C134.9 77.7 134.9 77.7 134.9 77.8C135.1 78.1 135.3 78.5 135.5 78.8C135.7 79.1 135.8 79.4 136 79.7C136.2 80 136.3 80.3 136.4 80.6C136.6 80.9 136.7 81.2 136.8 81.6C137.1 82.2 137.3 82.9 137.6 83.5C137.7 83.8 137.8 84.2 137.9 84.5C138 84.9 138.2 85.3 138.3 85.7C138.4 86 138.5 86.2 138.5 86.5C138.6 86.9 138.7 87.2 138.8 87.6C139 88.3 139.1 89 139.3 89.7C139.3 89.8 139.3 89.8 139.3 89.9C139.4 90.5 139.5 91.1 139.6 91.6C139.7 92.2 139.8 92.8 139.8 93.4C139.9 93.8 139.9 94.2 139.9 94.6C139.9 95.1 140 95.6 140 96.1V96.2C140 96.4 140 96.7 140 97C140 97.5 140 98 140 98.4C140 98.8 140.3 99.1 140.3 99.5Z" fill="#C4C4C3"/>
<path d="M91.8999 60.3C68.0999 60.3 55.2 76.7 55.2 100.5C55.9 104.2 56.8 107.6 57.9 110.7C57.4 108.3 57.1 105.9 57.1 103.4C57.1 94.1 60.7 85.4 67.3 78.8C68.2 77.9 69.1 77.1 70.1 76.3C76.2 71.3 83.8999 68.6001 91.8999 68.6001C101.2 68.6001 109.9 72.2 116.5 78.8C123.1 85.4 126.7 94.1 126.7 103.4C126.7 111.4 124 119 119.1 125.1C118.3 126.1 117.5 127 116.6 127.9C110 134.5 101.3 138.1 92 138.1C89 138.1 86 137.7 83.2 137C86.5 138.2 90.2 139.1 94.1 139.8C117.9 139.8 135.1 127.2 135.1 103.4C135 79.6 115.7 60.3 91.8999 60.3ZM57.9 110.7C59.3 117.2 62.5 123.2 67.3 128C71.7 132.4 77.2 135.5 83.1 137.1C70.6 132.5 62.5 123.8 57.9 110.7Z" fill="#264549"/>
<path d="M140.3 96.6C140.3 96.4 140.3 96.1 140.3 95.8V95.7C140.3 95.2 140.2 94.7 140.2 94.2C140.2 93.8 140.1 93.4 140.1 93C140 92.4 140 91.8 139.9 91.2C139.8 90.6 139.7 90 139.6 89.5C139.6 89.4 139.6 89.4 139.6 89.3C139.5 88.6 139.3 87.9 139.1 87.2C139 86.8 138.9 86.5 138.8 86.1C138.7 85.8 138.6 85.6 138.6 85.3C138.5 84.9 138.4 84.5 138.2 84.1C138.1 83.8 138 83.4 137.9 83.1C137.7 82.4 137.4 81.8 137.1 81.2C137 80.9 136.8 80.5 136.7 80.2C136.6 79.9 136.4 79.6 136.3 79.3C136.2 79 136 78.7 135.8 78.4C135.6 78.1 135.4 77.7 135.2 77.4C135.2 77.4 135.2 77.4 135.2 77.3C135.1 77.1 135 76.9 134.9 76.8C134.9 76.7 134.8 76.7 134.8 76.6C134.6 76.3 134.4 76 134.3 75.7C134.1 75.5 134 75.2 133.8 74.9C133.6 74.6 133.4 74.2 133.1 73.9C132.9 73.6 132.7 73.3 132.5 73C132.3 72.7 132.1 72.4 131.9 72.2C131.7 71.9 131.5 71.7 131.3 71.4C131.1 71.1 130.9 70.9 130.7 70.6C130.5 70.3 130.2 70.1 130 69.8C129.8 69.5 129.6 69.3 129.3 69C129.1 68.7 128.8 68.5 128.6 68.2C128.4 68 128.2 67.8 128 67.5L127.9 67.4C127.8 67.3 127.7 67.2 127.6 67.1C127.5 67 127.3 66.8 127.2 66.7C127 66.5 126.9 66.4 126.7 66.2C126.7 66.2 126.6 66.2 126.6 66.1C126.6 66.1 126.5 66 126.4 66C126.2 65.8 125.9 65.5 125.6 65.3C125.3 65 124.9 64.7 124.6 64.5C124.5 64.4 124.5 64.4 124.4 64.3C124.3 64.2 124.1 64.1 124 64C123.7 63.8 123.5 63.6 123.2 63.4C123.1 63.3 122.9 63.2 122.8 63.1C122.7 63 122.6 62.9 122.4 62.8C122.2 62.6 122 62.5 121.8 62.3C121.8 62.3 121.7 62.3 121.7 62.2C121.6 62.1 121.5 62.1 121.4 62C121.3 62 121.3 61.9 121.2 61.9C120.7 61.6 120.2 61.3 119.7 61C119.5 60.9 119.3 60.8 119.1 60.6C118.7 60.4 118.4 60.2 118 60C118 60 118 60 117.9 60C117.8 59.9 117.7 59.9 117.6 59.8C117.4 59.7 117.2 59.6 117 59.5C116.8 59.4 116.5 59.3 116.2 59.1C116.1 59 115.9 59 115.7 58.9C115.5 58.8 115.3 58.7 115 58.6C115 58.6 114.9 58.6 114.9 58.5C114.5 58.3 114.1 58.2 113.8 58C113.6 57.9 113.4 57.8 113.1 57.7C112.9 57.6 112.7 57.5 112.5 57.5C112.4 57.5 112.3 57.4 112.2 57.4C112 57.3 111.8 57.3 111.7 57.2C111.2 57 110.7 56.9 110.3 56.7C109.6 56.5 108.9 56.3 108.3 56.1C107.6 55.9 106.9 55.8 106.2 55.6C105.5 55.4 104.8 55.3 104.1 55.2C103.7 55.1 103.3 55.1 102.9 55C102.7 55 102.5 55 102.3 54.9C102.1 54.9 101.9 54.9 101.6 54.8C101.4 54.8 101.1 54.8 100.9 54.7C100.3 54.7 99.7 54.6 99.1 54.6C98.6 54.6 98.1 54.6 97.6 54.6C97.1 54.6 96.6 54.6 96.1 54.6C95.9 54.6 95.8 54.6 95.6 54.6C95.5 54.6 95.4 54.6 95.4 54.6C95 54.6 94.7 54.6 94.3 54.7C94.1 54.7 93.8 54.7 93.6 54.8C93.4 54.8 93.1 54.8 92.9 54.9C92.7 54.9 92.5 54.9 92.3 55C91.9 55 91.5 55.1 91.1 55.2C90.4 55.3 89.7 55.4 89 55.6C88.3 55.7 87.6 55.9 86.9 56.1C86.2 56.3 85.5 56.5 84.9 56.7C84.2 56.9 83.6 57.1 82.9 57.4C82.3 57.6 81.7 57.8 81.2 58.1C80.8 58.3 80.4 58.4 80 58.6C79.8 58.7 79.6 58.8 79.4 58.9C79.2 59 79 59.1 78.8 59.2C78.6 59.3 78.4 59.4 78.2 59.5C78 59.6 77.9 59.7 77.7 59.7C77.6 59.7 77.5 59.8 77.5 59.8C77.1 60 76.8 60.2 76.4 60.4C76.1 60.6 75.8 60.8 75.5 60.9C75.2 61 74.9 61.3 74.6 61.4C74.3 61.6 74 61.8 73.7 62C73.6 62.1 73.4 62.2 73.3 62.3C72.6 62.8 71.9 63.3 71.2 63.8C70.9 64 70.7 64.2 70.4 64.4C70.3 64.5 70.2 64.6 70.1 64.7C69.4 65.3 68.8 65.9 68.1 66.5C67.6 67 67.1 67.5 66.6 68C66 68.6 65.4 69.3 64.8 70C64.7 70.1 64.6 70.2 64.5 70.3C64.3 70.6 64.1 70.8 63.8 71.1C63.3 71.8 62.7 72.5 62.3 73.2C62.2 73.3 62.1 73.5 62 73.6C61.8 73.9 61.6 74.2 61.4 74.5C61.2 74.8 61 75.1 60.9 75.4C60.7 75.7 60.5 76 60.4 76.3C60.2 76.7 60 77 59.8 77.4C59.8 77.5 59.7 77.6 59.7 77.6C59.6 77.8 59.5 77.9 59.5 78.1C59.4 78.3 59.3 78.5 59.2 78.6C59.1 78.8 59 79 58.9 79.3C58.8 79.5 58.7 79.7 58.6 79.9C58.4 80.3 58.2 80.7 58.1 81.1C57.9 81.7 57.6 82.3 57.4 82.8C57.2 83.5 56.9 84.1 56.7 84.8C56.5 85.5 56.3 86.2 56.1 86.8C55.9 87.5 55.8 88.2 55.6 88.9C55.5 89.6 55.3 90.3 55.2 91C55.1 91.4 55.1 91.8 55 92.2C55 92.4 55 92.6 54.9 92.8C54.9 93 54.9 93.2 54.8 93.5C54.8 93.7 54.8 94 54.7 94.2C54.7 94.6 54.6 94.9 54.6 95.3C54.6 95.4 54.6 95.4 54.6 95.5C54.6 95.7 54.6 95.9 54.6 96C54.6 96.5 54.6 97 54.6 97.5C54.6 98 54.6 98.5 54.6 99C54.6 99.6 54.6 100.2 54.7 100.8C54.7 101 54.7 101.3 54.8 101.5C54.8 101.7 54.8 102 54.9 102.2C54.9 102.4 54.9 102.6 55 102.8C55 103.2 55.1 103.6 55.2 104C55.3 104.7 55.4 105.4 55.6 106.1C55.7 106.8 55.9 107.5 56.1 108.2C56.3 108.9 56.5 109.6 56.7 110.2C56.9 110.7 57 111.2 57.2 111.6C57.3 111.8 57.3 112 57.4 112.2C57.4 112.3 57.5 112.4 57.5 112.5C57.6 112.7 57.7 112.9 57.7 113.1C57.8 113.3 57.9 113.5 57.9 113.7C57.9 113.7 57.9 113.7 57.9 113.8C57.9 113.8 57.9 113.9 58 114C58.1 114.2 58.2 114.4 58.2 114.6C58.2 114.6 58.2 114.6 58.2 114.7C58.2 114.8 58.3 114.9 58.3 115.1C58.3 115.1 58.3 115.2 58.4 115.2C58.5 115.4 58.6 115.7 58.7 115.9C58.8 116.2 59 116.5 59.1 116.8C59.3 117.1 59.4 117.4 59.6 117.7C59.7 117.8 59.7 117.9 59.8 118C59.8 118 59.8 118 59.8 118.1C60 118.4 60.1 118.7 60.3 118.9C60.6 119.5 61 120.1 61.4 120.7C61.6 121 61.8 121.3 62 121.5C62 121.5 62 121.5 62 121.6L62.1 121.7C62.1 121.7 62.1 121.8 62.2 121.8C62.4 122 62.5 122.2 62.7 122.4C62.8 122.5 62.9 122.6 63 122.8C63.1 122.9 63.2 123.1 63.3 123.2C63.5 123.5 63.7 123.7 63.9 124C64 124.1 64.1 124.3 64.2 124.4C64.3 124.5 64.3 124.5 64.4 124.6C64.7 124.9 64.9 125.3 65.2 125.6C65.4 125.9 65.7 126.1 65.9 126.4C65.9 126.4 66 126.5 66 126.6C66 126.6 66 126.7 66.1 126.7C66.3 126.9 66.4 127.1 66.6 127.2C66.7 127.3 66.8 127.5 67 127.6C67.1 127.7 67.2 127.8 67.3 127.9C67.3 127.9 67.3 128 67.4 128C67.6 128.2 67.8 128.4 68.1 128.6C68.3 128.8 68.6 129.1 68.9 129.3C69.1 129.5 69.4 129.8 69.7 130C70 130.2 70.2 130.5 70.5 130.7C70.8 130.9 71 131.1 71.3 131.4C71.6 131.6 71.8 131.8 72.1 132C72.4 132.2 72.7 132.4 72.9 132.6C73.2 132.8 73.5 133 73.7 133.2C74 133.4 74.4 133.6 74.7 133.8C74.9 134 75.2 134.1 75.5 134.3C75.8 134.5 76.1 134.7 76.4 134.8C76.5 134.8 76.5 134.9 76.6 134.9C76.7 135 76.8 135 76.8 135C77 135.1 77.1 135.2 77.3 135.2C77.6 135.4 77.9 135.5 78.2 135.7C78.5 135.9 78.8 136 79.1 136.2C79.4 136.4 79.7 136.5 80 136.7C80.3 136.8 80.6 137 81 137.1C81.7 137.4 82.3 137.6 83 137.9C83.3 138 83.7 138.1 84 138.2C84.4 138.3 84.8 138.5 85.2 138.6C85.5 138.7 85.7 138.8 86 138.8C86.4 138.9 86.7 139 87.1 139.1C87.8 139.3 88.5 139.4 89.2 139.6C89.3 139.6 89.3 139.6 89.4 139.6C90 139.7 90.6 139.8 91.1 139.9C91.7 140 92.3 140.1 92.9 140.1C93.3 140.2 93.7 140.2 94.1 140.2C94.6 140.3 95.1 140.3 95.6 140.3C95.9 140.3 96.1 140.3 96.4 140.3C96.9 140.3 97.4 140.3 97.9 140.3C98.4 140.3 98.9 140.3 99.3 140.3C99.5 140.3 99.8 140.3 100.1 140.3C100.5 140.3 100.8 140.3 101.2 140.2C101.3 140.2 101.5 140.2 101.6 140.2C102 140.2 102.5 140.1 102.9 140.1C103.3 140 103.8 140 104.2 139.9C104.3 139.9 104.4 139.9 104.5 139.9C105.1 139.8 105.7 139.7 106.3 139.6C106.4 139.6 106.4 139.6 106.5 139.6C107.2 139.5 107.9 139.3 108.6 139.1C108.9 139 109.3 138.9 109.6 138.8C109.9 138.7 110.3 138.6 110.6 138.5C110.9 138.4 111.3 138.3 111.6 138.2C111.9 138.1 112.3 138 112.6 137.9C112.6 137.9 112.6 137.9 112.7 137.9C113 137.8 113.2 137.7 113.5 137.6C113.5 137.6 113.6 137.6 113.6 137.5C113.9 137.4 114.3 137.2 114.6 137.1C114.9 137 115.3 136.8 115.6 136.7C115.9 136.6 116.2 136.4 116.5 136.2C116.8 136 117.1 135.9 117.4 135.7C117.7 135.5 118 135.4 118.3 135.2C118.5 135.1 118.6 135 118.8 135C118.9 135 119 134.9 119 134.9C119.1 134.9 119.1 134.8 119.2 134.8C119.5 134.6 119.8 134.5 120.1 134.3C120.2 134.3 120.2 134.2 120.3 134.2C120.5 134.1 120.6 134 120.8 133.9C121.1 133.7 121.5 133.5 121.8 133.3C122.1 133.1 122.4 132.9 122.7 132.7C123 132.5 123.3 132.3 123.5 132.1C123.8 131.9 124 131.7 124.3 131.5C124.6 131.3 124.8 131.1 125.1 130.8C125.4 130.6 125.6 130.4 125.9 130.1C126.7 129.4 127.4 128.7 128.2 128C128.9 127.3 129.6 126.5 130.3 125.7C130.5 125.4 130.8 125.2 131 124.9C131.2 124.6 131.4 124.4 131.6 124.1C131.8 123.8 132 123.6 132.2 123.3C132.4 123 132.6 122.7 132.8 122.5C133 122.2 133.2 121.9 133.4 121.7C133.6 121.4 133.8 121 134.1 120.7C134.2 120.5 134.3 120.4 134.4 120.2C134.4 120.1 134.5 120 134.5 120C134.7 119.7 134.9 119.4 135 119.1C135.1 119 135.1 119 135.1 118.9C135.1 118.8 135.2 118.7 135.2 118.7C135.3 118.5 135.4 118.4 135.4 118.2C135.6 117.9 135.7 117.6 135.9 117.3C136.1 117 136.2 116.7 136.4 116.4C136.6 116.1 136.7 115.8 136.8 115.5C137 115.2 137.1 114.9 137.2 114.5C137.3 114.2 137.5 113.9 137.6 113.5C137.6 113.5 137.6 113.4 137.7 113.3C137.8 113 137.9 112.8 138 112.5C138 112.5 138 112.5 138 112.4C138.1 112.1 138.2 111.7 138.3 111.4C138.4 111.1 138.5 110.7 138.6 110.4C138.7 110.1 138.8 109.7 138.9 109.4C139 109.1 139.1 108.7 139.2 108.4C139.4 107.7 139.5 107 139.7 106.3V106.1C139.8 105.5 139.9 104.9 140 104.3C140 104.2 140 104.1 140.1 104C140.2 103.6 140.2 103.1 140.3 102.7C140.4 102.3 140.4 101.8 140.4 101.4C140.4 101.3 140.4 101.1 140.4 101C140.4 100.6 140.5 100.3 140.5 99.9C140.5 99.7 140.5 99.4 140.5 99.1C140.5 98.6 140.5 98.1 140.5 97.6C140.5 97.1 140.3 97.1 140.3 96.6ZM121.8 122.7C120.9 123.6 120 124.5 119 125.2C112.8 130.2 105.3 132.8 97.3 132.8C88 132.8 79.3 129.2 72.7 122.6C66.1 116 62.5 107.3 62.5 98C62.5 90 65.2 82.4 70.1 76.3C70.9 75.3 71.7 74.4 72.6 73.5C79.2 66.9 87.9 63.3 97.2 63.3C106.5 63.3 115.2 66.9 121.8 73.5C128.4 80.1 132 88.8 132 98.1C132 107.4 128.4 116.1 121.8 122.7Z" fill="#E9F4F5"/>
</svg>
